<svg width="2333" height="2272" viewBox="0 0 2333 2272" fill="none" xmlns="http://www.w3.org/2000/svg">
<path d="M218.869 1177.37C228.338 995.726 158.332 866.891 255.923 729.144C316.358 643.847 549.273 535.681 609.709 450.369C630 421.731 650.626 392.725 676.45 371.731C747.155 314.226 839.701 327.591 924.592 332.666C987.259 336.419 1050.51 334.343 1112 319.178C1268.03 280.729 1401.58 161.888 1548.42 87.0192C1615.83 52.6605 1686.4 27.4837 1758.36 12.1192C1824.75 -2.06104 1894.61 -7.56709 1958.28 19.44C2021.94 46.447 2078.11 112.119 2086.29 193.694C2090.87 239.295 2080.55 284.989 2078.06 330.836C2075.55 376.684 2083.51 428.483 2114.25 455.059C2139.12 476.56 2172.39 476.053 2200.45 490.571C2271.72 527.437 2286.09 643.171 2276.78 736.865C2267.46 830.559 2246.18 931.652 2282.8 1014.81C2292.95 1037.86 2307.14 1058.12 2316.16 1081.86C2326.95 1110.3 2329.75 1142.19 2331.29 1173.46C2339.92 1348.09 2313.74 1525.11 2255.65 1685.09C2245.98 1711.71 2235.06 1738.52 2217.62 1758.43C2195.99 1783.12 2166.57 1794.74 2142.26 1815.38C2114.94 1838.55 2094.81 1872.46 2068.08 1896.62C2018.26 1941.65 1952.42 1947.59 1890.52 1951.88C1717.97 1963.86 1542.56 1975.55 1374.35 1927.15C1183.96 1872.36 1003.85 1741.29 808.488 1753.66C705.835 1760.15 600.194 1806.15 503.056 1765.17C455.04 1744.91 413.478 1702.94 387.238 1650.02C359.424 1593.93 360.511 1524.22 329.916 1470.23C309.541 1434.28 276.146 1414.83 255.09 1379.85C221.858 1324.66 215.419 1243.58 218.869 1177.37" fill="#FEE4CB"/>
<path d="M2311.02 1479.75C2267.36 1477.79 2223.93 1472.13 2180.99 1464.01C2128.32 1454.06 2072.54 1438.1 2039.06 1396.27C2029.66 1384.54 2022.18 1370.91 2010.25 1361.75C1996.52 1351.21 1978.78 1347.97 1961.51 1345.95V1070.57C1970.92 1067.65 1980.48 1065.24 1990.26 1063.7C1999.79 1062.2 2009.27 1061.54 2018.73 1061.54C2075.29 1061.54 2131.22 1085.18 2187.86 1095.17C2219.27 1100.7 2251.12 1102.02 2283.05 1102.02C2296.13 1102.02 2309.21 1101.81 2322.28 1101.56C2328.12 1124.63 2330.09 1149.24 2331.28 1173.46C2332.19 1191.9 2332.68 1210.37 2332.83 1228.85C2325.29 1229.42 2317.74 1229.73 2310.21 1229.73C2289.46 1229.73 2268.86 1227.37 2248.82 1221.73C2232.47 1217.11 2216.78 1210.39 2200.43 1205.8C2183.33 1200.97 2165.56 1198.59 2147.78 1198.59C2117.53 1198.59 2087.25 1205.49 2060.15 1218.98C2048.8 1224.65 2036.35 1235.13 2039.65 1247.38C2133.11 1280.94 2233.22 1289.42 2331.15 1306.7C2328.19 1364.91 2321.45 1422.83 2311.02 1479.75" fill="#FEE9D5"/>
<path d="M108.797 949.818C142.763 928.232 157.791 990.738 161.183 1007.73C175.869 1009.98 189.215 1013.31 201.14 1017.22C189.683 999.552 170.627 993.952 166.669 980.712C162.232 965.872 166.955 947.672 190.655 962.365C209.433 974.005 207.421 1006 205.776 1018.8C226.313 1026 242.4 1034.78 253.783 1042.14C243.377 1019.87 221.984 1010.85 219.047 995.325C215.832 978.365 223.128 959.072 247.665 978.738C267.947 994.978 260.68 1032.22 257.549 1044.65C267.807 1051.63 273.384 1056.89 273.975 1057.46C285.281 1068.02 295.636 1078.79 305.132 1089.66C296.393 1069.85 279.556 1058.33 278.628 1043.95C277.513 1026.71 287.133 1008.86 309.117 1032.16C326.509 1050.59 316.451 1083.96 311.488 1097.1C330.825 1120.26 346.321 1143.71 358.759 1166.27C356.947 1146.04 341.268 1118.26 345.408 1099.35C348.124 1086.94 355.719 1083.87 361.657 1083.49C366.731 1083.15 371.636 1085.47 375.181 1089.76C395.225 1113.99 369.408 1157.75 361.08 1170.53C376.088 1198.47 386.408 1224.93 393.484 1247.62C392.628 1237.15 391.269 1221.35 390.237 1213.18C388.61 1200.29 392.349 1182.13 400.921 1174.69C401.277 1174.38 401.636 1174.09 401.992 1173.82C408.825 1168.67 418.077 1170.61 423.863 1177.59C446.499 1204.86 405.239 1247.39 396.077 1256.25C396.123 1256.41 396.173 1256.57 396.219 1256.73C412.776 1314.31 411.96 1355.07 411.917 1356.78L406.383 1356.42C406.392 1356.02 407.141 1317.22 392.268 1263.19C340.225 1257.34 324.711 1223.64 331.304 1210.94C338.117 1197.82 358.103 1192.81 368.155 1217.15C373.984 1231.27 382.948 1244.66 389.453 1253.42C382.549 1230.51 372.215 1203.37 356.836 1174.58C289.771 1193.35 282.18 1144.67 295.591 1133.11C309.164 1121.41 320.636 1128.31 332.301 1146.66C340.051 1158.85 349.393 1166.82 354.811 1170.82C342.684 1148.65 327.536 1125.57 308.636 1102.75C300.789 1113.42 278.959 1139.1 256.805 1128.86C229.116 1116.07 238.825 1098.29 252.729 1091.95C265.516 1086.13 284.012 1102.01 305.876 1099.45C295.272 1086.9 283.537 1074.43 270.512 1062.27C270.304 1062.07 259.115 1051.51 238.191 1040.05C231.531 1051.91 212.871 1080.31 189.955 1073.35C161.173 1064.62 168.799 1045.51 181.839 1037.19C193.476 1029.78 212.693 1041.94 233.309 1037.45C215.365 1028.18 191.192 1018.81 161.452 1014.13C154.46 1026.38 136.076 1053.54 113.616 1046.71C84.8346 1037.98 92.4599 1018.87 105.501 1010.56C117.301 1003.03 136.896 1015.66 157.841 1010.62L157.897 1009.95C150.436 1006.45 134.584 999.058 126.851 995.965C116.529 991.845 104.703 980.018 103.013 968.138C101.323 956.272 108.797 949.818 108.797 949.818" fill="#07085B"/>
<path d="M155.43 1261.14L71.4829 1259.79C42.2335 1207.03 20.7549 1161.14 20.7549 1161.14C115.52 1139.1 195.552 1147.91 262.268 1173.41L299.184 1262.57L306.908 1193.83C472.302 1282.66 540.753 1471.25 540.753 1471.25C540.753 1471.25 248.712 1440.74 186.755 1412.07C162.832 1401.01 132.636 1361.07 104.576 1316.22C126.911 1294.87 155.43 1261.14 155.43 1261.14" fill="#06BFAD"/>
<path d="M20.7549 1161.14C20.7549 1161.14 395.939 1318.14 540.753 1471.25C540.753 1471.25 248.712 1440.74 186.755 1412.07C162.832 1401.01 132.636 1361.07 104.576 1316.22C126.911 1294.87 155.43 1261.14 155.43 1261.14L71.4829 1259.79C42.2335 1207.03 20.7549 1161.14 20.7549 1161.14" fill="#02CCC0"/>
<path d="M0.937326 1259.59C16.9627 1233.05 48.76 1271.02 56.9213 1281.57C67.824 1278.09 78.1707 1275.81 87.7387 1274.42C73.7747 1266.15 58.716 1268.83 51.4453 1261.06C43.2946 1252.34 40.3133 1238.17 61.696 1240.18C78.6386 1241.77 88.224 1264.53 91.4773 1273.93C108.113 1271.85 122.212 1272.38 132.591 1273.55C117.777 1261.77 99.9253 1262.87 92.5827 1253.18C84.5467 1242.58 82.968 1226.78 106.631 1231.93C126.189 1236.17 133.943 1264.34 136.045 1273.99C145.515 1275.3 151.164 1277.01 151.768 1277.19C163.185 1280.61 174.023 1284.49 184.297 1288.73C171.475 1278.05 155.915 1275.89 150.347 1266.29C143.665 1254.78 144.18 1239.17 167.333 1247.7C185.649 1254.46 190.151 1280.91 191.232 1291.69C212.509 1301.03 231.236 1311.89 247.551 1323.18C239.365 1309.85 219.027 1296.06 215.399 1281.61C213.019 1272.11 217.201 1267.39 221.165 1265.09C224.551 1263.11 228.732 1263.05 232.647 1264.78C254.78 1274.62 251.975 1313.66 250.608 1325.33C270.543 1339.45 286.731 1354.17 299.391 1367.39C295.212 1360.46 288.86 1350.03 285.343 1344.74C279.799 1336.41 276.152 1322.61 279.513 1314.53C279.653 1314.19 279.801 1313.87 279.955 1313.57C282.904 1307.67 289.951 1305.83 296.333 1308.66C321.296 1319.71 307.42 1363.21 304.139 1372.45L304.399 1372.73C335.561 1406.77 348.972 1435.17 349.528 1436.35L345.585 1438.01C345.456 1437.73 332.669 1410.7 303.889 1378.54C265.987 1392.34 243.735 1374.42 243.929 1363.41C244.131 1352.02 256.196 1341.71 271.475 1355.06C280.336 1362.79 291.107 1368.95 298.596 1372.77C285.981 1359.33 269.548 1344.15 249.071 1329.57C209.252 1365.51 187.325 1334.54 192.611 1321.97C197.961 1309.25 208.243 1310.07 222.577 1318.73C232.099 1324.47 241.279 1326.77 246.387 1327.67C230.42 1316.54 212.061 1305.82 191.2 1296.55C189.448 1306.61 183.193 1331.79 164.405 1332.34C140.924 1333.01 141.523 1317.42 148.941 1308.27C155.763 1299.87 173.964 1304.49 188.164 1295.22C176.549 1290.21 164.185 1285.63 151.028 1281.71C150.816 1281.63 139.481 1278.19 121.116 1277.46C120.592 1287.93 117.456 1313.91 99.2667 1316.97C76.4213 1320.81 75.128 1305.02 81.2733 1294.81C86.756 1285.71 104.177 1287.5 116.856 1277.34C101.305 1277.1 81.4173 1278.91 59.3 1285.89C58.68 1296.74 55.3106 1321.77 37.4813 1324.77C14.6373 1328.61 13.344 1312.82 19.4893 1302.61C25.0493 1293.38 42.8906 1295.37 55.6093 1284.71L55.4187 1284.23C49.0707 1284.37 35.6066 1284.71 29.212 1285.23C20.6786 1285.93 8.46665 1281.82 3.23065 1274.21C-2.00401 1266.61 0.937326 1259.59 0.937326 1259.59" fill="#FEB546"/>
<path d="M33.2266 1413.25C83.6399 1382.41 134.528 1365.86 183.797 1359.21C198.276 1377.13 216.051 1398.22 216.051 1398.22L217.836 1356.11C406.899 1347.11 563.831 1473.49 563.831 1473.49C454.457 1542.73 361.079 1561.95 284.545 1555.94C279.983 1541.22 273.519 1519.26 273.519 1519.26L260.069 1553.11C223.375 1547.45 190.981 1536.07 162.999 1522.14C170.124 1504.59 177.624 1484.51 177.624 1484.51L136.917 1507.74C68.5439 1466.13 33.2266 1413.25 33.2266 1413.25" fill="#55769F"/>
<path d="M284.545 1555.94C279.983 1541.22 273.519 1519.26 273.519 1519.26L260.069 1553.11C223.375 1547.45 190.981 1536.07 162.999 1522.14C170.124 1504.59 177.624 1484.51 177.624 1484.51L136.917 1507.74C68.5439 1466.13 33.2266 1413.25 33.2266 1413.25C253.479 1387.35 563.831 1473.49 563.831 1473.49C454.457 1542.73 361.079 1561.95 284.545 1555.94Z" fill="#07085B"/>
<path d="M2130.83 1705.73L2229.61 1704.12C2264.01 1642.06 2289.28 1588.07 2289.28 1588.07C2177.78 1562.12 2122.43 1559.7 2043.94 1589.68L1992.79 1669.67L1983.37 1603.95C1788.77 1708.45 1677.47 1952.92 1677.47 1952.92C1677.47 1952.92 2021.06 1917.03 2093.97 1883.31C2122.12 1870.29 2157.63 1823.3 2190.65 1770.53C2164.39 1745.41 2130.83 1705.73 2130.83 1705.73Z" fill="#06BFAD"/>
<path d="M2289.28 1588.07C2289.28 1588.07 1847.86 1772.78 1677.47 1952.92C1677.47 1952.92 2021.06 1917.03 2093.97 1883.31C2122.12 1870.29 2157.63 1823.3 2190.65 1770.53C2164.39 1745.41 2130.83 1705.73 2130.83 1705.73L2229.61 1704.12C2264.01 1642.06 2289.28 1588.07 2289.28 1588.07Z" fill="#02CCC0"/>
<path d="M2274.61 1884.68C2215.31 1848.4 2155.42 1828.92 2097.47 1821.1C2080.42 1842.19 2059.51 1866.99 2059.51 1866.99L2057.41 1817.46C1834.97 1806.87 1650.32 1955.55 1650.32 1955.55C1779.01 2037.03 1888.88 2059.64 1978.92 2052.56C1984.28 2035.24 1991.89 2009.42 1991.89 2009.42L2007.71 2049.24C2050.9 2042.58 2089 2029.19 2121.93 2012.8C2113.54 1992.15 2104.72 1968.54 2104.72 1968.54L2152.6 1995.87C2233.06 1946.91 2274.61 1884.68 2274.61 1884.68" fill="#FEB546"/>
<path d="M1978.92 2052.56C1984.28 2035.24 1991.89 2009.42 1991.89 2009.42L2007.71 2049.24C2050.9 2042.58 2089 2029.19 2121.93 2012.8C2113.54 1992.15 2104.72 1968.54 2104.72 1968.54L2152.6 1995.87C2233.06 1946.91 2274.61 1884.68 2274.61 1884.68C2015.47 1854.22 1650.32 1955.55 1650.32 1955.55C1779.01 2037.03 1888.88 2059.64 1978.92 2052.56" fill="#F4A640"/>
<path d="M1941.56 872.165L1179.27 703.338V1897.99L1941.56 2058.9V872.165Z" fill="#1C2072"/>
<path d="M1961.51 2058.61L1941.56 2058.9V864.152L1961.51 863.859V2058.61Z" fill="#07085B"/>
<path d="M1179.27 703.338L1188.01 696.725L1961.51 863.858L1941.56 872.165L1179.27 703.338" fill="#4D5296"/>
<path d="M416.967 872.165L1179.27 703.338V1897.99L416.967 2058.9V872.165Z" fill="#1C2072"/>
<path d="M448.942 883.459L1126.45 715.219C1126.45 715.219 1162.03 730.165 1179.27 728.099L857.269 997.219C857.269 997.219 634.165 1026.13 628.485 1016.5C622.805 1006.89 448.942 883.459 448.942 883.459" fill="#EAF5F9"/>
<path d="M448.942 2053.27L535.274 2091.9V922.085L448.942 883.459V2053.27Z" fill="#DAEEF7"/>
<path d="M1179.27 1897.99L535.274 2091.9V922.005L1179.27 728.099V1897.99Z" fill="#CAE2EA"/>
<path d="M599.803 1074.34V990.072L1114.74 835.019V919.286L770.9 1022.82C757.489 1014.58 743.608 1013.06 735.231 1013.06C730.377 1013.06 727.371 1013.57 727.371 1013.57C727.371 1013.57 727.76 1023.46 728.247 1035.66L720.484 1037.99C719.28 1037.79 718.065 1037.63 716.841 1037.51C714.784 1037.3 712.747 1037.21 710.732 1037.21C695.24 1037.21 681.123 1043.21 670.603 1053.02L664.9 1054.74C650.688 1048.02 637.364 1041.71 637.364 1041.71C637.364 1041.71 626.901 1057.46 618.461 1068.71L599.803 1074.34" fill="#B5D5E0"/>
<path d="M796.365 1051.87C794.651 1048.34 792.793 1045.13 790.827 1042.19V1038.42L1114.74 940.885V956.005L796.365 1051.87" fill="#B5D5E0"/>
<path d="M812.064 1084.95C811.903 1084.67 811.743 1084.39 811.584 1084.1C809.336 1080.1 807.239 1076.02 805.256 1071.89L1114.74 978.699V993.819L812.064 1084.95Z" fill="#B5D5E0"/>
<path d="M831.448 1116.93C828.773 1112.97 826.031 1108.63 823.345 1104.25L1114.74 1016.5V1031.62L831.448 1116.93Z" fill="#B5D5E0"/>
<path d="M861.456 1145.7C856.402 1142.51 851.429 1139.07 846.597 1135.04L1114.74 1054.31V1069.43L861.456 1145.7" fill="#B5D5E0"/>
<path d="M901.983 1171.3C897.009 1167.33 891.935 1163.91 886.825 1160.75L1114.74 1092.11V1107.25L901.983 1171.3Z" fill="#B5D5E0"/>
<path d="M928.36 1201.17C926.698 1198.63 924.833 1195.95 922.777 1193.11C921.676 1191.59 920.565 1190.14 919.442 1188.74L1114.74 1129.93V1145.05L928.36 1201.17Z" fill="#B5D5E0"/>
<path d="M934.52 1237.12C937.576 1231.83 938.493 1226.68 937.516 1221.1L1114.74 1167.74V1182.86L934.52 1237.12Z" fill="#B5D5E0"/>
<path d="M939.003 1273.58C938.223 1268.86 936.32 1264.18 934.465 1259.83L1114.74 1205.54V1220.67L939.003 1273.58Z" fill="#B5D5E0"/>
<path d="M790.827 1356.01V1340.89L798.963 1338.43C804.959 1342.82 811.197 1345.41 817.561 1345.41C818.231 1345.41 818.9 1345.38 819.572 1345.31C824.027 1344.94 827.988 1344.41 831.529 1343.75L790.827 1356.01V1356.01ZM847.172 1339.05C859.212 1333.43 862.804 1325.22 869.02 1317.34L1114.74 1243.35V1258.47L847.172 1339.05" fill="#B5D5E0"/>
<path d="M790.827 1393.82V1378.7L1114.74 1281.16V1296.29L790.827 1393.82Z" fill="#B5D5E0"/>
<path d="M599.803 1489.15V1474.02L1114.74 1318.97V1334.1L599.803 1489.15Z" fill="#B5D5E0"/>
<path d="M633.893 1516.69L610.52 1508.61L857.269 1434.3V1449.43L633.893 1516.69Z" fill="#B5D5E0"/>
<path d="M692.333 1536.9L668.958 1528.82L857.269 1472.11V1487.23L692.333 1536.9Z" fill="#B5D5E0"/>
<path d="M750.773 1557.11L727.397 1549.03L857.269 1509.93V1525.05L750.773 1557.11Z" fill="#B5D5E0"/>
<path d="M809.212 1577.33L785.836 1569.23L857.269 1547.73V1562.86L809.212 1577.33Z" fill="#B5D5E0"/>
<path d="M857.269 1593.94L844.276 1589.45L857.269 1585.54V1593.94Z" fill="#B5D5E0"/>
<path d="M981.415 1752.33C981.532 1750.39 981.705 1748.47 981.933 1746.59C982.351 1743.14 982.946 1739.78 983.689 1736.51L1114.74 1697.05V1712.18L981.415 1752.33Z" fill="#B5D5E0"/>
<path d="M986.377 1788.63C985.436 1785.87 984.632 1783.15 983.967 1780.45H983.959C983.475 1778.49 983.063 1776.54 982.713 1774.62L1114.74 1734.86V1749.98L986.377 1788.63Z" fill="#B5D5E0"/>
<path d="M1003.91 1821.17C1000.75 1816.93 997.963 1812.73 995.535 1808.57L1114.74 1772.67V1787.79L1003.91 1821.17Z" fill="#B5D5E0"/>
<path d="M599.803 1451.34V1205.98C605.564 1209.39 611.169 1210.3 616.529 1210.3C619.529 1210.3 622.451 1210.01 625.283 1209.73C628.115 1209.45 630.856 1209.17 633.492 1209.17C635.344 1209.17 637.141 1209.3 638.884 1209.69C645.545 1227.31 657.611 1246.85 657.611 1246.85L697.863 1247.74C697.863 1247.74 703.395 1241.57 709.048 1234.73C713.801 1250.41 717.56 1264.45 718.511 1272.29C720.145 1285.78 740.489 1289.65 763.441 1290.93C765.375 1294.65 767.408 1298.37 769.531 1302.03V1400.23L599.803 1451.34Z" fill="#B5D5E0"/>
<path d="M992.872 1711.06C996.072 1704.62 999.584 1698.93 1002.93 1694.11L1044.44 1682.06L1045.07 1672.53L951.28 1644.41L970.892 1633.25L875.441 1600.23V1428.83L1114.74 1356.78V1674.37L992.872 1711.06Z" fill="#B5D5E0"/>
<path d="M1909.59 883.459L1232.08 715.219C1232.08 715.219 1196.51 730.165 1179.27 728.099L1501.25 997.219C1501.25 997.219 1724.36 1026.13 1730.04 1016.5C1735.72 1006.89 1909.59 883.459 1909.59 883.459" fill="#F3FCFF"/>
<path d="M1909.59 2053.27L1823.25 2091.9V922.085L1909.59 883.459V2053.27Z" fill="#B6D5E0"/>
<path d="M1179.27 1897.99L1823.25 2091.9V922.005L1179.27 728.099V1897.99Z" fill="#DAEEF7"/>
<path d="M397.019 2058.61L416.967 2058.9V864.152L397.019 863.859V2058.61Z" fill="#07085B"/>
<path d="M1179.27 703.338L1170.52 696.725L397.019 863.858L416.967 872.165L1179.27 703.338" fill="#4D5296"/>
<path d="M1241.81 708.446C1217.39 699.752 1197.95 697.046 1185.27 696.379C1177.56 695.672 1153.92 695.046 1117.48 708.019C1117.48 708.019 1119.67 710.352 1124.12 713.392H1124.13C1130.53 717.752 1141.6 723.566 1157.6 726.019C1206.67 736.286 1241.81 708.446 1241.81 708.446Z" fill="#07085B"/>
<path d="M1211.24 1844.06L1791.89 2018.9V964.058L1211.24 789.205V1844.06" fill="#07085B"/>
<path d="M1211.24 1323.71V1844.06L1520.48 1937.18C1602.47 1845.7 1636.92 1715.3 1600.35 1588.58C1550.35 1415.35 1384.41 1307.07 1211.24 1323.71Z" fill="#FEB546"/>
<path d="M1291.11 1324.78C1321.67 1362.22 1345.33 1406.3 1359.57 1455.66C1402.79 1605.34 1346.88 1760.14 1230.63 1849.9L1520.48 1937.18C1602.47 1845.7 1636.92 1715.3 1600.35 1588.58C1558.12 1442.3 1433.21 1342.33 1291.11 1324.78Z" fill="#F4A640"/>
<path d="M1547.29 1477.99C1643.79 1458.09 1727.59 1445.09 1791.89 1439.98V1407.58C1715.99 1418.85 1627.89 1435.62 1531.59 1457.35C1537.04 1464.02 1542.29 1470.9 1547.29 1477.99Z" fill="#D37300"/>
<path d="M1791.89 1597.54V1565.13C1671.49 1623.61 1481.92 1693.49 1264.96 1756.11C1246.91 1761.33 1228.99 1766.39 1211.24 1771.31V1793.37C1230.95 1787.89 1250.83 1782.26 1270.84 1776.49C1471.36 1718.61 1652.55 1655.61 1791.89 1597.54" fill="#D37300"/>
<path d="M1217.09 1290.54V797.099L1390.6 849.339C1387 859.886 1384.19 870.619 1383.09 881.739C1378.29 930.646 1407.36 975.819 1418.61 1023.66C1424.49 1048.7 1425.48 1074.89 1421.47 1100.29C1420.28 1107.78 1418.59 1115.41 1414.39 1121.71C1408.56 1130.45 1398.68 1135.57 1388.81 1139.14C1357.37 1150.47 1319.76 1150.93 1296.53 1174.94C1277.77 1194.34 1274.21 1223.58 1261.17 1247.21C1250.96 1265.71 1235.36 1279.93 1217.09 1290.54" fill="#31367B"/>
<path d="M1768.13 2005.63L1601.64 1955.5C1598.76 1950.23 1595.47 1945.15 1591.79 1940.3L1594.63 1937.75L1582.21 1929.03C1572.52 1918.83 1560.97 1909.91 1547.92 1902.61C1590.79 1841.45 1614.89 1767.67 1614.91 1691.01C1614.91 1682.73 1614.63 1674.41 1614.05 1666.07C1676.31 1643.73 1734.03 1621.51 1786.04 1599.98V1977.82C1778.93 1986.45 1772.91 1995.75 1768.13 2005.63V2005.63ZM1611.56 1641.62C1609.16 1623.94 1605.44 1606.22 1600.35 1588.58C1594.57 1568.57 1587.25 1549.45 1578.56 1531.27V1531.26C1578.51 1531.17 1578.45 1531.05 1578.4 1530.94C1578.39 1530.9 1578.37 1530.89 1578.36 1530.86C1578.32 1530.75 1578.27 1530.66 1578.23 1530.57C1578.2 1530.53 1578.19 1530.49 1578.16 1530.45C1578.12 1530.35 1578.08 1530.27 1578.04 1530.18C1578.01 1530.13 1577.99 1530.09 1577.97 1530.03C1577.92 1529.94 1577.89 1529.86 1577.84 1529.78C1577.81 1529.73 1577.8 1529.67 1577.77 1529.62C1577.73 1529.54 1577.69 1529.45 1577.65 1529.38C1577.63 1529.31 1577.6 1529.27 1577.57 1529.21C1577.53 1529.14 1577.49 1529.05 1577.45 1528.97C1577.43 1528.91 1577.4 1528.86 1577.37 1528.79C1577.33 1528.73 1577.29 1528.63 1577.25 1528.57C1577.23 1528.5 1577.19 1528.42 1577.15 1528.35C1577.12 1528.29 1577.09 1528.23 1577.07 1528.17C1577 1528.05 1576.92 1527.9 1576.87 1527.77C1576.85 1527.74 1576.84 1527.73 1576.83 1527.7C1576.77 1527.58 1576.72 1527.47 1576.67 1527.35C1576.64 1527.31 1576.63 1527.27 1576.6 1527.25C1576.55 1527.14 1576.51 1527.05 1576.45 1526.94C1576.44 1526.9 1576.41 1526.86 1576.4 1526.83C1576.35 1526.73 1576.29 1526.62 1576.25 1526.53C1576.23 1526.49 1576.21 1526.45 1576.2 1526.41C1576.15 1526.31 1576.09 1526.21 1576.04 1526.1C1576.03 1526.07 1576 1526.03 1575.99 1526.01C1575.93 1525.89 1575.88 1525.79 1575.83 1525.67C1575.81 1525.65 1575.8 1525.62 1575.79 1525.59C1575.72 1525.47 1575.67 1525.37 1575.61 1525.25C1575.6 1525.22 1575.59 1525.21 1575.59 1525.18C1575.52 1525.05 1575.45 1524.93 1575.39 1524.78H1575.37C1567.12 1508.34 1557.72 1492.73 1547.31 1477.99C1640.88 1458.69 1722.53 1445.87 1786.04 1440.46V1567.95C1737.68 1591.17 1678.67 1616.1 1611.56 1641.62V1641.62ZM1531.59 1457.34C1498.08 1416.42 1456.31 1383.47 1409.57 1360.34C1414.16 1352.89 1419.13 1345.81 1424.81 1339.49C1479.12 1279.06 1582.43 1302.01 1621.91 1227.17C1633.73 1204.75 1637.91 1175.79 1655.28 1159.21C1667.99 1147.07 1685.19 1144.27 1701.48 1142.89C1717.52 1141.51 1733.59 1141.05 1749.67 1141.05C1761.79 1141.05 1773.91 1141.31 1786.04 1141.67V1408.46C1711.47 1419.71 1625.43 1436.18 1531.59 1457.35" fill="#31367B"/>
<path d="M1312.41 1742.18C1303.32 1727.99 1294.31 1713.74 1285.61 1699.25C1267.39 1668.89 1249.73 1633.78 1254.04 1596.89C1259.12 1553.35 1292.23 1523.66 1319.72 1494.14C1333.08 1479.79 1345.64 1464.41 1357.31 1448.11C1358.09 1450.62 1358.85 1453.13 1359.57 1455.66C1388 1554.13 1373.53 1654.81 1327.21 1737.73C1322.31 1739.21 1317.36 1740.7 1312.41 1742.18ZM1614.91 1691.01C1614.91 1682.73 1614.63 1674.41 1614.05 1666.07C1614.63 1674.41 1614.91 1682.73 1614.91 1691.01ZM1611.56 1641.62C1609.16 1623.94 1605.44 1606.22 1600.35 1588.58C1594.57 1568.58 1587.25 1549.45 1578.56 1531.27C1587.25 1549.45 1594.57 1568.57 1600.35 1588.58C1605.44 1606.22 1609.16 1623.94 1611.56 1641.62ZM1578.56 1531.26C1578.51 1531.17 1578.45 1531.05 1578.4 1530.94C1578.45 1531.05 1578.51 1531.17 1578.56 1531.26ZM1578.36 1530.86C1578.32 1530.75 1578.27 1530.66 1578.23 1530.57C1578.27 1530.66 1578.32 1530.75 1578.36 1530.86ZM1578.16 1530.45C1578.12 1530.35 1578.08 1530.26 1578.04 1530.18C1578.08 1530.27 1578.12 1530.35 1578.16 1530.45ZM1577.97 1530.03C1577.93 1529.95 1577.88 1529.86 1577.84 1529.78C1577.89 1529.86 1577.92 1529.94 1577.97 1530.03ZM1577.77 1529.62C1577.73 1529.54 1577.69 1529.46 1577.65 1529.38C1577.69 1529.45 1577.73 1529.54 1577.77 1529.62ZM1577.57 1529.21C1577.53 1529.14 1577.49 1529.05 1577.45 1528.97C1577.49 1529.05 1577.53 1529.14 1577.57 1529.21ZM1577.37 1528.79C1577.33 1528.73 1577.29 1528.65 1577.25 1528.57C1577.29 1528.63 1577.33 1528.73 1577.37 1528.79ZM1577.15 1528.35C1577.12 1528.29 1577.09 1528.23 1577.07 1528.17C1577.09 1528.23 1577.12 1528.29 1577.15 1528.35ZM1576.87 1527.77C1576.85 1527.74 1576.84 1527.73 1576.83 1527.7C1576.84 1527.73 1576.85 1527.74 1576.87 1527.77ZM1576.67 1527.35C1576.64 1527.31 1576.63 1527.29 1576.6 1527.25C1576.63 1527.27 1576.64 1527.31 1576.67 1527.35ZM1576.45 1526.94C1576.44 1526.9 1576.41 1526.86 1576.4 1526.83C1576.41 1526.86 1576.44 1526.9 1576.45 1526.94ZM1576.25 1526.53C1576.23 1526.49 1576.21 1526.45 1576.2 1526.41C1576.21 1526.45 1576.23 1526.49 1576.25 1526.53ZM1576.04 1526.1C1576.03 1526.07 1576 1526.03 1575.99 1526.01C1576 1526.03 1576.03 1526.07 1576.04 1526.1ZM1575.83 1525.67C1575.81 1525.66 1575.8 1525.62 1575.79 1525.59C1575.8 1525.62 1575.81 1525.65 1575.83 1525.67ZM1575.61 1525.25C1575.6 1525.22 1575.59 1525.21 1575.59 1525.18C1575.59 1525.21 1575.6 1525.22 1575.61 1525.25ZM1575.39 1524.78H1575.37H1575.39Z" fill="#FEC36A"/>
<path d="M1547.92 1902.61C1544.12 1900.47 1540.19 1898.49 1536.12 1896.65L1519.23 1884.77L1514.85 1888.69C1502.61 1885.01 1489.57 1882.58 1475.88 1881.58C1471.15 1881.23 1466.44 1881.06 1461.75 1881.06C1440.31 1881.06 1419.49 1884.63 1400.19 1891.17C1397.75 1885.99 1395.27 1880.85 1392.72 1875.75C1372.57 1835.37 1348.49 1798.07 1324.4 1760.77C1427.95 1729.89 1525.6 1697.83 1614.05 1666.07C1614.63 1674.41 1614.91 1682.73 1614.91 1691.01C1614.89 1767.67 1590.79 1841.45 1547.92 1902.61V1902.61ZM1327.21 1737.73C1373.53 1654.81 1388 1554.13 1359.57 1455.66C1358.85 1453.13 1358.09 1450.62 1357.31 1448.11C1368.95 1431.87 1379.69 1414.75 1389.45 1396.86C1396.11 1384.69 1402.37 1372.03 1409.57 1360.34C1456.31 1383.47 1498.08 1416.42 1531.59 1457.34C1531.59 1457.35 1531.59 1457.35 1531.59 1457.35C1537.04 1464.02 1542.29 1470.9 1547.29 1477.99C1557.72 1492.73 1567.12 1508.34 1575.37 1524.78H1575.39C1575.45 1524.93 1575.52 1525.05 1575.59 1525.18C1575.59 1525.21 1575.6 1525.22 1575.61 1525.25C1575.67 1525.37 1575.72 1525.47 1575.79 1525.59C1575.8 1525.62 1575.81 1525.66 1575.83 1525.67C1575.88 1525.79 1575.93 1525.89 1575.99 1526.01C1576 1526.03 1576.03 1526.07 1576.04 1526.1C1576.09 1526.21 1576.15 1526.31 1576.2 1526.41C1576.21 1526.45 1576.23 1526.49 1576.25 1526.53C1576.29 1526.62 1576.35 1526.73 1576.4 1526.83C1576.41 1526.86 1576.44 1526.9 1576.45 1526.94C1576.51 1527.05 1576.55 1527.14 1576.6 1527.25C1576.63 1527.29 1576.64 1527.31 1576.67 1527.35C1576.72 1527.47 1576.77 1527.58 1576.83 1527.7C1576.84 1527.73 1576.85 1527.74 1576.87 1527.77C1576.92 1527.9 1577 1528.05 1577.07 1528.17C1577.09 1528.23 1577.12 1528.29 1577.15 1528.35C1577.19 1528.42 1577.23 1528.5 1577.25 1528.57C1577.29 1528.65 1577.33 1528.73 1577.37 1528.79C1577.4 1528.86 1577.43 1528.91 1577.45 1528.97C1577.49 1529.05 1577.53 1529.14 1577.57 1529.21C1577.6 1529.27 1577.63 1529.31 1577.65 1529.38C1577.69 1529.46 1577.73 1529.54 1577.77 1529.62C1577.8 1529.67 1577.81 1529.73 1577.84 1529.78C1577.88 1529.86 1577.93 1529.95 1577.97 1530.03C1577.99 1530.09 1578.01 1530.13 1578.04 1530.18C1578.08 1530.26 1578.12 1530.35 1578.16 1530.45C1578.19 1530.49 1578.2 1530.53 1578.23 1530.57C1578.27 1530.66 1578.32 1530.75 1578.36 1530.86C1578.37 1530.89 1578.39 1530.9 1578.4 1530.94C1578.45 1531.05 1578.51 1531.17 1578.56 1531.26V1531.27C1587.25 1549.45 1594.57 1568.58 1600.35 1588.58C1605.44 1606.22 1609.16 1623.94 1611.56 1641.62C1527.73 1673.49 1431.31 1706.26 1327.21 1737.73" fill="#F6B765"/>
<path d="M1547.29 1477.99C1542.29 1470.9 1537.04 1464.02 1531.59 1457.35C1625.43 1436.18 1711.47 1419.71 1786.04 1408.46V1440.46C1722.53 1445.87 1640.88 1458.69 1547.29 1477.99Z" fill="#DB8D31"/>
<path d="M1324.4 1760.77C1320.4 1754.58 1316.4 1748.38 1312.41 1742.18C1317.36 1740.7 1322.31 1739.21 1327.21 1737.73C1431.31 1706.26 1527.73 1673.49 1611.56 1641.62C1678.67 1616.1 1737.68 1591.17 1786.04 1567.95V1599.98C1734.03 1621.51 1676.31 1643.73 1614.05 1666.07C1525.6 1697.83 1427.95 1729.89 1324.4 1760.77" fill="#DB8D31"/>
<path d="M1616.33 1081.54C1623.19 1081.54 1623.19 1070.89 1616.33 1070.89C1609.48 1070.89 1609.47 1081.54 1616.33 1081.54Z" fill="#DAEEF7"/>
<path d="M1302.03 1274.96C1306.83 1274.96 1306.83 1267.51 1302.03 1267.51C1297.23 1267.51 1297.23 1274.96 1302.03 1274.96Z" fill="#DAEEF7"/>
<path d="M1254.69 1145.38C1260.85 1145.38 1260.87 1135.79 1254.69 1135.79C1248.52 1135.79 1248.51 1145.38 1254.69 1145.38Z" fill="#DAEEF7"/>
<path d="M1690.17 1339.27C1699.76 1339.27 1699.77 1324.36 1690.17 1324.36C1680.57 1324.36 1680.56 1339.27 1690.17 1339.27Z" fill="#DAEEF7"/>
<path d="M1336.11 964.152C1342.96 964.152 1342.97 953.499 1336.11 953.499C1329.25 953.499 1329.24 964.152 1336.11 964.152Z" fill="#DAEEF7"/>
<path d="M1555.73 988.766C1562.59 988.766 1562.6 978.112 1555.73 978.112C1548.89 978.112 1548.88 988.766 1555.73 988.766Z" fill="#DAEEF7"/>
<path d="M1697.75 1229.22C1704.6 1229.22 1704.61 1218.58 1697.75 1218.58C1690.89 1218.58 1690.88 1229.22 1697.75 1229.22Z" fill="#DAEEF7"/>
<path d="M1506.51 1233C1513.36 1233 1513.37 1222.36 1506.51 1222.36C1499.65 1222.36 1499.65 1233 1506.51 1233Z" fill="#DAEEF7"/>
<path d="M1764.01 988.766C1770.87 988.766 1770.88 978.112 1764.01 978.112C1757.16 978.112 1757.15 988.766 1764.01 988.766Z" fill="#DAEEF7"/>
<path d="M1345.57 932.259C1350.37 932.259 1350.37 924.805 1345.57 924.805C1340.77 924.805 1340.77 932.259 1345.57 932.259Z" fill="#DAEEF7"/>
<path d="M1555.73 1408.57C1561.91 1408.57 1561.92 1398.98 1555.73 1398.98C1549.57 1398.98 1549.56 1408.57 1555.73 1408.57Z" fill="#DAEEF7"/>
<path d="M1682.6 1775.89C1688.76 1775.89 1688.77 1766.3 1682.6 1766.3C1676.43 1766.3 1676.41 1775.89 1682.6 1775.89Z" fill="#DAEEF7"/>
<path d="M1714.79 1810.79C1719.59 1810.79 1719.59 1803.34 1714.79 1803.34C1709.99 1803.34 1709.97 1810.79 1714.79 1810.79Z" fill="#DAEEF7"/>
<path d="M1764.01 1720.74C1767.44 1720.74 1767.44 1715.4 1764.01 1715.4C1760.59 1715.4 1760.59 1720.74 1764.01 1720.74Z" fill="#DAEEF7"/>
<path d="M1743.19 1331.77C1747.99 1331.77 1747.99 1324.31 1743.19 1324.31C1738.39 1324.31 1738.39 1331.77 1743.19 1331.77Z" fill="#DAEEF7"/>
<path d="M1269.84 928.179C1276.69 928.179 1276.71 917.525 1269.84 917.525C1262.99 917.525 1262.97 928.179 1269.84 928.179Z" fill="#DAEEF7"/>
<path d="M1233.87 1259.82C1238.67 1259.82 1238.67 1252.36 1233.87 1252.36C1229.07 1252.36 1229.05 1259.82 1233.87 1259.82Z" fill="#DAEEF7"/>
<path d="M1525.44 1214.38C1530.24 1214.38 1530.25 1206.93 1525.44 1206.93C1520.65 1206.93 1520.64 1214.38 1525.44 1214.38Z" fill="#DAEEF7"/>
<path d="M1462.96 1176.51C1467.76 1176.51 1467.77 1169.05 1462.96 1169.05C1458.17 1169.05 1458.16 1176.51 1462.96 1176.51Z" fill="#DAEEF7"/>
<path d="M1676.92 1087.51C1681.72 1087.51 1681.72 1080.06 1676.92 1080.06C1672.12 1080.06 1672.11 1087.51 1676.92 1087.51Z" fill="#DAEEF7"/>
<path d="M1675.03 1557.07C1679.83 1557.07 1679.83 1549.62 1675.03 1549.62C1670.23 1549.62 1670.21 1557.07 1675.03 1557.07Z" fill="#DAEEF7"/>
<path d="M1705.32 1579.79C1710.12 1579.79 1710.12 1572.34 1705.32 1572.34C1700.52 1572.34 1700.51 1579.79 1705.32 1579.79Z" fill="#DAEEF7"/>
<path d="M1629.59 1827.83C1634.37 1827.83 1634.39 1820.38 1629.59 1820.38C1624.79 1820.38 1624.77 1827.83 1629.59 1827.83Z" fill="#DAEEF7"/>
<path d="M1523.08 1059.18C1523.08 1059.18 1520.92 1081.77 1504.11 1078.33C1520.92 1084.99 1523.08 1108.87 1523.08 1108.87C1523.08 1108.87 1525.24 1086.29 1542.05 1089.73C1525.24 1083.07 1523.08 1059.18 1523.08 1059.18Z" fill="#DAEEF7"/>
<path d="M1690.17 1885.49C1690.17 1885.49 1688.01 1908.09 1671.2 1904.63C1688.01 1911.3 1690.17 1935.19 1690.17 1935.19C1690.17 1935.19 1692.33 1912.59 1709.15 1916.03C1692.33 1909.38 1690.17 1885.49 1690.17 1885.49Z" fill="#DAEEF7"/>
<path d="M1501.56 900.779C1501.56 900.779 1499.84 918.779 1486.45 916.032C1499.84 921.339 1501.56 940.365 1501.56 940.365C1501.56 940.365 1503.29 922.365 1516.68 925.112C1503.29 919.805 1501.56 900.779 1501.56 900.779Z" fill="#DAEEF7"/>
<path d="M1317.56 1059.18C1317.56 1059.18 1316.08 1074.67 1304.56 1072.31C1316.08 1076.87 1317.56 1093.26 1317.56 1093.26C1317.56 1093.26 1319.04 1077.77 1330.57 1080.13C1319.04 1075.55 1317.56 1059.18 1317.56 1059.18Z" fill="#DAEEF7"/>
<path d="M1730.17 1477.99C1730.17 1477.99 1728.69 1493.49 1717.17 1491.13C1728.69 1495.7 1730.17 1512.07 1730.17 1512.07C1730.17 1512.07 1731.65 1496.58 1743.19 1498.94C1731.65 1494.38 1730.17 1477.99 1730.17 1477.99Z" fill="#DAEEF7"/>
<path d="M1669.59 963.565C1669.59 963.565 1668.52 974.752 1660.19 973.045C1668.52 976.339 1669.59 988.179 1669.59 988.179C1669.59 988.179 1670.65 976.979 1678.99 978.685C1670.65 975.392 1669.59 963.565 1669.59 963.565Z" fill="#DAEEF7"/>
<path d="M1743.19 1168.99C1743.19 1168.99 1742.12 1180.18 1733.79 1178.47C1742.12 1181.78 1743.19 1193.61 1743.19 1193.61C1743.19 1193.61 1744.25 1182.42 1752.59 1184.13C1744.25 1180.82 1743.19 1168.99 1743.19 1168.99Z" fill="#DAEEF7"/>
<path d="M1602.65 1168.99C1602.65 1168.99 1601.59 1180.18 1593.27 1178.47C1601.59 1181.78 1602.65 1193.61 1602.65 1193.61C1602.65 1193.61 1603.72 1182.42 1612.05 1184.13C1603.72 1180.82 1602.65 1168.99 1602.65 1168.99Z" fill="#DAEEF7"/>
<path d="M1317.56 834.738C1317.56 834.738 1316.49 845.938 1308.17 844.232C1316.49 847.525 1317.56 859.352 1317.56 859.352C1317.56 859.352 1318.63 848.165 1326.96 849.871C1318.63 846.578 1317.56 834.738 1317.56 834.738Z" fill="#DAEEF7"/>
<path d="M1400.07 1294.53C1400.07 1294.53 1399.15 1304.05 1392.07 1302.59C1399.15 1305.39 1400.07 1315.46 1400.07 1315.46C1400.07 1315.46 1400.97 1305.94 1408.05 1307.39C1400.97 1304.59 1400.07 1294.53 1400.07 1294.53Z" fill="#DAEEF7"/>
<path d="M1217.09 1839.7L1786.04 2011.02V968.405L1217.09 797.098V1839.7ZM1797.75 2026.78L1205.39 1848.42V781.338L1797.75 959.698V2026.78" fill="#07085B"/>
<path d="M587.08 2256.43L73.4082 2076.37L480.247 1851.93L1005.66 2039.78L610.675 2254.54C603.431 2258.47 594.86 2259.17 587.08 2256.43Z" fill="#E03268"/>
<path d="M113.356 1881.35C113.356 1881.35 190.624 1970.71 101.267 2068.48L585.232 2250.34C597.195 2254.84 610.676 2252.04 619.859 2243.15L637.411 2226.16C637.411 2226.16 698.384 2059.02 698.384 2054.82C698.384 2050.6 576.437 1951.79 576.437 1951.79C576.437 1951.79 375.645 1927.6 370.391 1927.6C365.133 1927.6 113.356 1881.35 113.356 1881.35Z" fill="#DAEEF7"/>
<path d="M636.168 2204.02C626.772 2204.01 279.981 2077.94 279.981 2077.94C279.981 2077.94 636.36 2195.69 639.513 2195.69C639.513 2195.69 637.411 2200.81 636.36 2203.97C636.347 2204.01 636.283 2204.02 636.168 2204.02" fill="#BADEEF"/>
<path d="M86.0225 1876.62V1887.66L596.937 2062.7C596.937 2062.7 628.474 2102.13 625.321 2155.74C622.166 2209.35 610.553 2251.71 593.742 2252.3C593.742 2252.3 604.364 2253.17 609.718 2249.86C615.072 2246.54 627.554 2235.37 627.554 2235.37C627.554 2235.37 648.712 2139.97 649.762 2137.61C650.814 2135.23 638.724 2057.45 630.577 2051.66C622.43 2045.87 629.264 2036.67 590.629 2029.58C551.996 2022.49 247.654 1885.82 240.296 1887.66C232.937 1889.5 169.861 1886.61 166.444 1887.66C163.028 1888.71 86.0225 1876.62 86.0225 1876.62" fill="#E03268"/>
<path d="M604.821 2057.97C604.821 2057.97 669.868 2168.37 604.821 2256.94L1037.94 2022.22C1037.94 2022.22 1088.93 1917.62 1023.22 1851.93L604.821 2057.97Z" fill="#E03268"/>
<path d="M604.821 2057.97L86.0225 1876.62L554.36 1717.35L1023.22 1851.93L604.821 2057.97Z" fill="#FF5B7E"/>
<path d="M144.345 1970.78C144.4 1967.93 144.362 1965.11 144.23 1962.35C144.365 1965.11 144.409 1967.93 144.354 1970.79" fill="#DAEEF7"/>
<path d="M521.772 2093.71L144.345 1970.78C144.409 1967.93 144.365 1965.11 144.233 1962.35L521.772 2093.71" fill="#BADEEF"/>
<path d="M136.191 2013.25H136.173C137.643 2009.29 138.9 2005.38 139.944 2001.53C138.909 2005.38 137.66 2009.3 136.191 2013.25Z" fill="#DAEEF7"/>
<path d="M413.228 2103.7L136.19 2013.24C137.66 2009.3 138.909 2005.38 139.952 2001.52L413.228 2103.7Z" fill="#BADEEF"/>
<path d="M522.167 2000.71L1046.2 1845.11L652.269 1651.18L116.051 1813.5L498.681 1999.07C505.697 2002.47 514.229 2003.07 522.167 2000.71Z" fill="#06BFAD"/>
<path d="M1017.47 1676.61C1017.47 1676.61 935.059 1753.82 1018.79 1838.3L524.364 1995.46C512.143 1999.34 498.823 1996.93 490.151 1989.25L473.577 1974.57C473.577 1974.57 422.219 1830.13 422.461 1826.5C422.703 1822.86 550.333 1737.47 550.333 1737.47C550.333 1737.47 752.516 1716.58 757.772 1716.58C763.029 1716.58 1017.47 1676.61 1017.47 1676.61Z" fill="#DAEEF7"/>
<path d="M492.105 1951.39C491.752 1948.83 491.437 1946.2 491.161 1943.5C564.774 1923.46 839.532 1846.48 839.532 1846.48C839.532 1846.48 562.649 1931.67 492.105 1951.39Z" fill="#BADEEF"/>
<path d="M1045.07 1672.52L1044.44 1682.06L523.453 1833.31C523.453 1833.31 489.648 1867.38 489.719 1913.7C489.788 1960.03 498.964 1996.63 515.741 1997.14C515.741 1997.14 505.069 1997.9 499.907 1995.03C494.744 1992.16 482.903 1982.51 482.903 1982.51C482.903 1982.51 467.235 1900.07 466.319 1898.03C465.404 1895.99 481.969 1828.76 490.448 1823.76C498.928 1818.78 492.624 1810.83 531.667 1804.7C570.708 1798.56 882.911 1680.47 890.164 1682.06C894.119 1682.92 914.733 1682.58 933.201 1682.23C948.591 1681.94 962.489 1681.64 964.015 1682.06C967.371 1682.96 1045.07 1672.52 1045.07 1672.52" fill="#06BFAD"/>
<path d="M515.841 1829.22C515.841 1829.22 444.444 1924.62 504.396 2001.15L84.7771 1798.34C84.7771 1798.34 39.8078 1707.95 109.292 1651.18L515.841 1829.22Z" fill="#06BFAD"/>
<path d="M515.841 1829.22L1045.07 1672.53L585.896 1534.9L109.292 1651.18L515.841 1829.22Z" fill="#02CCC0"/>
<path d="M981.324 1753.89C981.347 1753.37 981.375 1752.85 981.407 1752.33H981.415C981.384 1752.85 981.356 1753.37 981.334 1753.89" fill="#ADD3E3"/>
<path d="M981.407 1752.33C981.525 1750.39 981.701 1748.49 981.931 1746.59H981.933C981.705 1748.47 981.532 1750.39 981.415 1752.33H981.407" fill="#9BC7D9"/>
<path d="M596.834 1860.1L981.933 1746.59C981.701 1748.49 981.525 1750.39 981.406 1752.33C981.374 1752.85 981.346 1753.37 981.324 1753.89L596.834 1860.1Z" fill="#BADEEF"/>
<path d="M987.045 1790.58C986.809 1789.94 986.58 1789.29 986.361 1788.65L986.377 1788.63C986.597 1789.29 986.827 1789.93 987.061 1790.58H987.045Z" fill="#ADD3E3"/>
<path d="M986.362 1788.65C985.422 1785.89 984.624 1783.15 983.959 1780.45H983.967C984.632 1783.15 985.436 1785.87 986.378 1788.63L986.362 1788.65" fill="#9BC7D9"/>
<path d="M704.803 1868.74L983.959 1780.44C984.624 1783.15 985.421 1785.88 986.361 1788.64C986.58 1789.28 986.809 1789.94 987.045 1790.58L704.803 1868.74Z" fill="#BADEEF"/>
<path d="M195.641 1851.93L164.389 1836.94C164.345 1836.89 164.298 1836.82 164.254 1836.75L195.641 1851.91C195.641 1851.93 195.641 1851.93 195.641 1851.93" fill="#04B19C"/>
<path d="M195.641 1851.91L164.254 1836.75C109.306 1755.67 179.746 1682.13 179.814 1682.06L215.166 1697.54C155.58 1754.67 195.47 1851.5 195.641 1851.91Z" fill="#04B19C"/>
<path d="M215.166 1697.54L179.814 1682.06L215.166 1697.54Z" fill="#01BDAD"/>
<path d="M642.826 1810.65L206.329 1662.53L524.141 1478.73L970.892 1633.25L662.102 1809.11C656.441 1812.34 649.437 1812.9 642.826 1810.65" fill="#F4A640"/>
<path d="M224.387 1502.59C224.387 1502.59 294.779 1575.95 228.66 1656.09L640.843 1805.65C651.032 1809.35 661.916 1807.06 668.799 1799.78L681.953 1785.86C681.953 1785.86 719.435 1648.79 719.115 1645.34C718.796 1641.89 610.908 1560.73 610.908 1560.73C610.908 1560.73 443.796 1540.74 439.469 1540.74C435.144 1540.73 224.387 1502.59 224.387 1502.59Z" fill="#DAEEF7"/>
<path d="M679.248 1767.69C671.513 1767.67 376.481 1663.99 376.481 1663.99C376.481 1663.99 678.771 1760.85 681.367 1760.85C681.367 1760.85 680.027 1765.06 679.4 1767.65C679.393 1767.67 679.343 1767.69 679.248 1767.69Z" fill="#BADEEF"/>
<path d="M201.529 1498.69L202.368 1507.74L636.212 1651.73C636.212 1651.73 665.168 1684.09 666.648 1728.07C668.128 1772.05 661.789 1806.79 647.996 1807.26C647.996 1807.26 656.805 1807.98 660.96 1805.27C665.115 1802.55 674.54 1793.39 674.54 1793.39C674.54 1793.39 684.703 1715.15 685.388 1713.22C686.073 1711.27 670.208 1647.45 663.063 1642.7C655.917 1637.95 660.843 1630.41 628.503 1624.55C596.164 1618.71 335.269 1506.37 329.352 1507.86C323.435 1509.37 271.296 1506.95 268.564 1507.81C265.832 1508.67 201.529 1498.69 201.529 1498.69" fill="#F4A640"/>
<path d="M642.343 1647.86C642.343 1647.86 704.276 1738.46 657.468 1811.07L996.131 1618.87C996.131 1618.87 1030.15 1533.1 971.071 1479.15L642.343 1647.86Z" fill="#F4A640"/>
<path d="M642.343 1647.86L201.529 1498.69L574.916 1368.41L971.071 1479.15L642.343 1647.86Z" fill="#FEB546"/>
<path d="M256.692 1575.98C256.52 1573.63 256.275 1571.33 255.956 1569.06C256.277 1571.33 256.528 1573.63 256.7 1575.98" fill="#DAEEF7"/>
<path d="M576.701 1677.11L256.692 1575.98C256.528 1573.63 256.277 1571.33 255.958 1569.06L576.701 1677.11Z" fill="#BADEEF"/>
<path d="M253.21 1610.81H253.195C254.104 1607.57 254.842 1604.35 255.406 1601.19H255.414C254.848 1604.35 254.118 1607.57 253.21 1610.81" fill="#DAEEF7"/>
<path d="M488.117 1685.22L253.209 1610.81C254.117 1607.57 254.848 1604.35 255.413 1601.19L488.117 1685.22" fill="#BADEEF"/>
<path d="M604.552 1603.46L349.4 1513.97L399.835 1492.01L670.139 1572.14L604.552 1603.46Z" fill="#F4A640"/>
<path d="M1866.41 902.779L1218.09 721.086H1218.11L1878.05 897.566L1866.41 902.779" fill="#ADD2E0"/>
<path d="M1866.41 1924.5V902.779L1878.05 897.566L1886.83 1919.11C1879.88 1920.55 1873.05 1922.35 1866.41 1924.5" fill="#82B2C5"/>
<path d="M1218.09 721.086L1217.09 720.806L1218.11 721.086H1218.09Z" fill="#050750"/>
<path d="M1190.81 2205.71C1196.96 2207.54 1203.97 2204.93 1206.78 2199.75C1217.17 2180.73 1244.36 2135.7 1288.41 2096.11C1290.23 2094.47 1298.88 2088.69 1333.41 2083.21C1357.89 2079.33 1391.12 2076.23 1432.19 2074.03C1501.9 2070.29 1594.81 2069.02 1708.35 2070.26C1901.92 2072.38 2090.6 2081.19 2092.49 2081.27L2095.11 2060.23C2093.23 2060.14 1904.01 2051.31 1709.9 2049.19C1595.74 2047.94 1502.18 2049.22 1431.84 2052.99C1310.37 2059.51 1281.86 2071.98 1270.59 2082.1C1223.56 2124.39 1195.2 2171.31 1184.12 2191.75C1181.09 2197.37 1184.14 2203.74 1190.81 2205.71" fill="#E03268"/>
<path d="M2114.59 2271.46C2108.01 2272.35 2101.99 2268.78 2100.89 2263.32C2096.84 2243.23 2084.64 2195.31 2054.27 2150.24C2053.02 2148.38 2046.42 2141.47 2014.45 2131.1C1991.78 2123.75 1960.31 2115.9 1920.92 2107.78C1854.05 2093.99 1763.72 2079.24 1652.46 2063.96C1462.75 2037.88 1275.69 2019.04 1273.82 2018.86L1277.98 1997.92C1279.84 1998.12 1467.44 2017 1657.66 2043.15C1769.54 2058.52 1860.48 2073.38 1927.99 2087.28C2044.52 2111.31 2068.39 2127.63 2076.14 2139.15C2108.58 2187.28 2121.3 2237.23 2125.59 2258.8C2126.76 2264.72 2121.73 2270.51 2114.59 2271.46" fill="#CE1B5C"/>
<path d="M1369.96 2139.43L1365.71 2136.12C1367.41 2136.98 1369.13 2137.8 1370.88 2138.62L1369.96 2139.43ZM1320.39 2100.83L1305.25 2089.04C1306.88 2088.59 1308.67 2088.12 1310.61 2087.66C1313.56 2092.22 1316.83 2096.62 1320.39 2100.83Z" fill="#ECF6FB"/>
<path d="M1305.25 2089.04L1297.75 2083.2L1304.53 2077.12C1306.37 2080.72 1308.4 2084.23 1310.61 2087.66C1308.67 2088.12 1306.88 2088.59 1305.25 2089.04Z" fill="#DD90B0"/>
<path d="M1591.79 1940.3C1588.84 1936.39 1585.64 1932.63 1582.21 1929.03L1594.63 1937.75L1591.79 1940.3" fill="#8692B9"/>
<path d="M1536.12 1896.65C1529.36 1893.57 1522.25 1890.9 1514.85 1888.69L1519.23 1884.77L1536.12 1896.65Z" fill="#E8D3AE"/>
<path d="M1605.31 1962.75C1604.65 1961.34 1603.97 1959.95 1603.27 1958.57L1605.95 1962.17L1605.31 1962.75" fill="#717BA9"/>
<path d="M1775.81 2123.82L1770.19 2118.69C1770.19 2118.69 1770.71 2118.19 1771.69 2117.26C1772.99 2119.49 1774.37 2121.67 1775.81 2123.82" fill="#ECF6FB"/>
<path d="M2037.83 1955.18C2036.33 1953.84 2034.8 1952.52 2033.23 1951.24C2036.87 1952.9 2039.13 1953.91 2039.13 1953.91L2037.83 1955.18Z" fill="#E7CA9C"/>
<path d="M1446 2154.54C1441.31 2154.54 1436.6 2154.37 1431.87 2154.02C1409.61 2152.38 1389.03 2146.98 1370.88 2138.62L1443.47 2073.46C1449.57 2073.17 1455.85 2072.89 1462.29 2072.62L1385.08 2142.99L1401.51 2148.95L1485.97 2071.78C1520.15 2070.69 1558.4 2070.06 1600.51 2069.86C1573.08 2120.13 1512.48 2154.54 1446 2154.54V2154.54ZM1365.71 2136.13C1347.76 2127.06 1332.39 2115.01 1320.39 2100.83L1365.71 2136.13V2136.13ZM1300.52 2068.46C1294.35 2053.57 1291.29 2037.46 1291.88 2020.73C1306.69 2022.27 1330 2024.74 1359.39 2027.98L1318.73 2064.41C1311.72 2065.73 1305.71 2067.07 1300.52 2068.46V2068.46ZM1468.09 2051.35L1478.8 2041.73C1483.88 2042.34 1489 2042.95 1494.17 2043.58L1486.35 2050.71C1480.13 2050.91 1474.04 2051.13 1468.09 2051.35V2051.35ZM1509.75 2050.06L1514.16 2046.02C1523.13 2047.13 1532.24 2048.26 1541.44 2049.41C1530.56 2049.59 1519.99 2049.81 1509.75 2050.06ZM1612.96 2037.13C1586.41 2033.62 1560.2 2030.27 1534.84 2027.13L1553 2010.53L1614.51 2029.05C1614.48 2029.23 1614.45 2029.42 1614.43 2029.61C1614.01 2032.14 1613.52 2034.65 1612.96 2037.13Z" fill="#F4FAFD"/>
<path d="M1614.51 2029.04L1553 2010.52L1600.29 1967.32L1608.27 1969.72C1615.36 1988.08 1617.77 2008.22 1614.51 2029.04Z" fill="#DAEEF7"/>
<path d="M1608.27 1969.73L1600.29 1967.33L1605.31 1962.75C1606.37 1965.05 1607.36 1967.37 1608.27 1969.73" fill="#474D8A"/>
<path d="M1514.93 2024.66C1509.85 2024.04 1504.84 2023.43 1499.85 2022.83L1523.47 2001.63L1536.04 2005.42L1514.93 2024.66" fill="#F4FAFD"/>
<path d="M1536.04 2005.42L1523.47 2001.63L1571.37 1958.62L1583.43 1962.25L1536.04 2005.42Z" fill="#DAEEF7"/>
<path d="M1601.64 1955.5L1600.8 1955.25L1596.88 1949.98L1593.52 1953.05L1581.59 1949.46L1591.79 1940.3C1595.47 1945.15 1598.76 1950.23 1601.64 1955.5Z" fill="#646EA0"/>
<path d="M1583.43 1962.25L1571.37 1958.62L1581.59 1949.46L1593.52 1953.05L1583.43 1962.25V1962.25ZM1603.27 1958.57L1600.8 1955.25L1601.64 1955.5C1602.2 1956.51 1602.75 1957.54 1603.27 1958.57Z" fill="#474D8A"/>
<path d="M1380.63 2008.95C1342.07 2004.65 1311.91 2001.45 1294.52 1999.63C1299.17 1978.21 1309.49 1958.5 1323.97 1941.57L1422.67 1971.29L1380.63 2008.95" fill="#F4FAFD"/>
<path d="M1422.67 1971.29L1323.97 1941.57C1338.35 1924.77 1356.8 1910.69 1377.88 1900.35L1470.65 1928.29L1422.67 1971.29" fill="#DAEEF7"/>
<path d="M1402.2 1895.45L1394.61 1893.15C1396.45 1892.46 1398.32 1891.81 1400.19 1891.17C1400.87 1892.59 1401.53 1894.02 1402.2 1895.45Z" fill="#ECBC77"/>
<path d="M1480.87 1919.12L1402.2 1895.44C1401.53 1894.02 1400.87 1892.59 1400.19 1891.17C1419.49 1884.63 1440.31 1881.06 1461.75 1881.06C1466.44 1881.06 1471.15 1881.23 1475.88 1881.58C1489.57 1882.58 1502.61 1885 1514.85 1888.68L1480.87 1919.12Z" fill="#EEC891"/>
<path d="M1470.65 1928.29L1377.88 1900.35C1383.29 1897.7 1388.88 1895.3 1394.61 1893.15L1402.2 1895.45L1480.87 1919.13L1470.65 1928.29" fill="#474D8A"/>
<path d="M1582.21 1929.03L1546.83 1904.17C1547.2 1903.65 1547.56 1903.13 1547.92 1902.61C1560.97 1909.91 1572.52 1918.83 1582.21 1929.03" fill="#646EA0"/>
<path d="M1546.83 1904.17L1536.12 1896.65C1540.19 1898.49 1544.12 1900.47 1547.92 1902.61C1547.56 1903.13 1547.2 1903.65 1546.83 1904.17" fill="#EEC891"/>
<path d="M1304.53 2077.12C1303.08 2074.29 1301.73 2071.39 1300.52 2068.46C1305.71 2067.07 1311.72 2065.73 1318.73 2064.41L1304.53 2077.12ZM1443.47 2073.46L1468.09 2051.35C1474.04 2051.12 1480.13 2050.91 1486.35 2050.71L1462.29 2072.62C1455.85 2072.88 1449.57 2073.17 1443.47 2073.46ZM1485.97 2071.78L1509.75 2050.06C1519.99 2049.81 1530.56 2049.59 1541.44 2049.41C1562.64 2052.06 1584.37 2054.84 1606.35 2057.75C1604.61 2061.88 1602.67 2065.93 1600.51 2069.86C1558.4 2070.06 1520.15 2070.68 1485.97 2071.78Z" fill="#DE6B93"/>
<path d="M1606.35 2057.75C1584.37 2054.85 1562.64 2052.06 1541.44 2049.41C1532.24 2048.26 1523.13 2047.13 1514.16 2046.02L1534.84 2027.13C1560.2 2030.27 1586.41 2033.62 1612.96 2037.13C1611.36 2044.21 1609.13 2051.1 1606.35 2057.75ZM1494.17 2043.58C1489 2042.95 1483.88 2042.34 1478.8 2041.73L1499.85 2022.83C1504.84 2023.43 1509.85 2024.05 1514.93 2024.66L1494.17 2043.58ZM1359.39 2027.98C1330 2024.74 1306.69 2022.27 1291.88 2020.73C1292.04 2015.86 1292.52 2010.94 1293.32 2005.99C1293.67 2003.86 1294.07 2001.74 1294.52 1999.63C1311.91 2001.45 1342.07 2004.65 1380.63 2008.95L1359.39 2027.98Z" fill="#D25B8B"/>
<path d="M1370.88 2138.62C1369.13 2137.81 1367.41 2136.98 1365.71 2136.13L1320.39 2100.83C1316.83 2096.62 1313.56 2092.22 1310.61 2087.66C1316.56 2086.21 1324.03 2084.7 1333.41 2083.21C1357.89 2079.33 1391.13 2076.23 1432.2 2074.03C1435.88 2073.83 1439.64 2073.65 1443.47 2073.46L1370.88 2138.62V2138.62ZM1318.73 2064.41L1359.39 2027.98C1392.59 2031.65 1433.55 2036.3 1478.8 2041.73L1468.09 2051.35C1455.4 2051.83 1443.32 2052.38 1431.85 2052.99C1378.17 2055.87 1342.64 2059.91 1318.73 2064.41" fill="#E7F4FA"/>
<path d="M1310.61 2087.66C1308.4 2084.23 1306.37 2080.72 1304.53 2077.12L1318.73 2064.4C1342.64 2059.91 1378.17 2055.87 1431.85 2052.99C1443.32 2052.38 1455.4 2051.83 1468.09 2051.35L1443.47 2073.46C1439.64 2073.64 1435.88 2073.83 1432.2 2074.03C1391.13 2076.23 1357.89 2079.32 1333.41 2083.2C1324.03 2084.7 1316.56 2086.2 1310.61 2087.66" fill="#DCACC5"/>
<path d="M1499.85 2022.83C1455.55 2017.46 1414.79 2012.77 1380.63 2008.95L1422.67 1971.29L1523.47 2001.63L1499.85 2022.83" fill="#E7F4FA"/>
<path d="M1523.47 2001.63L1422.67 1971.29L1470.65 1928.29L1571.37 1958.62L1523.47 2001.63Z" fill="#DAEEF7"/>
<path d="M1581.59 1949.46L1524.75 1932.34C1532.56 1923.3 1539.93 1913.89 1546.83 1904.17L1582.21 1929.03C1585.64 1932.63 1588.84 1936.39 1591.79 1940.3L1581.59 1949.46" fill="#9FAECC"/>
<path d="M1524.75 1932.34L1480.87 1919.13L1514.85 1888.69C1522.25 1890.9 1529.36 1893.57 1536.12 1896.65L1546.83 1904.17C1539.93 1913.89 1532.56 1923.3 1524.75 1932.34" fill="#E4DBC4"/>
<path d="M1571.37 1958.62L1470.65 1928.29L1480.87 1919.13L1524.75 1932.34L1581.59 1949.46L1571.37 1958.62Z" fill="#919EC1"/>
<path d="M1478.8 2041.73C1433.55 2036.3 1392.59 2031.65 1359.39 2027.98L1380.63 2008.95C1414.79 2012.77 1455.55 2017.46 1499.85 2022.83L1478.8 2041.73Z" fill="#D6A5C1"/>
<path d="M1401.51 2148.95L1385.08 2142.99L1462.29 2072.62C1469.96 2072.31 1477.85 2072.03 1485.97 2071.78L1401.51 2148.95V2148.95ZM1486.35 2050.71L1494.17 2043.58C1500.76 2044.38 1507.43 2045.19 1514.16 2046.02L1509.75 2050.06C1501.75 2050.26 1493.95 2050.47 1486.35 2050.71" fill="#E7F4FA"/>
<path d="M1462.29 2072.62L1486.35 2050.71C1493.95 2050.47 1501.75 2050.26 1509.75 2050.06L1485.97 2071.78C1477.85 2072.03 1469.96 2072.31 1462.29 2072.62Z" fill="#DCACC5"/>
<path d="M1534.84 2027.12C1528.15 2026.29 1521.51 2025.47 1514.93 2024.66L1536.04 2005.42L1553 2010.53L1534.84 2027.12Z" fill="#E7F4FA"/>
<path d="M1553 2010.53L1536.04 2005.42L1583.43 1962.25L1600.29 1967.33L1553 2010.53" fill="#DAEEF7"/>
<path d="M1600.8 1955.25L1593.52 1953.05L1596.88 1949.98L1600.8 1955.25Z" fill="#9FAECC"/>
<path d="M1600.29 1967.33L1583.43 1962.25L1593.52 1953.05L1600.8 1955.25L1603.27 1958.57C1603.97 1959.95 1604.65 1961.34 1605.31 1962.75L1600.29 1967.33" fill="#919EC1"/>
<path d="M1514.16 2046.02C1507.43 2045.19 1500.76 2044.38 1494.17 2043.58L1514.93 2024.66C1521.51 2025.47 1528.15 2026.29 1534.84 2027.13L1514.16 2046.02" fill="#D6A5C1"/>
<path d="M1909.84 2188.66C1905.17 2188.66 1900.45 2188.49 1895.72 2188.14C1843.01 2184.26 1799.69 2159.26 1775.8 2123.82L1821.74 2165.65L1887.85 2101.25C1892.1 2102.06 1896.28 2102.86 1900.37 2103.66C1863.59 2139.99 1833.94 2169.31 1833.07 2170.26L1844.28 2176.77L1917.02 2106.98C1918.32 2107.25 1919.61 2107.51 1920.91 2107.78C1960.3 2115.9 1991.76 2123.75 2014.43 2131.1C2024.03 2134.22 2031.34 2137.02 2036.91 2139.46C2005.2 2169.74 1959.15 2188.66 1909.84 2188.66V2188.66ZM2052.55 2122.07C2033.24 2113.09 1998.84 2102.21 1935.83 2088.93L1949.56 2075.77C2006.16 2077.63 2050.86 2079.46 2074.33 2080.47C2069.7 2095.45 2062.24 2109.45 2052.55 2122.07ZM1918.82 2085.43C1914.82 2084.62 1910.74 2083.82 1906.57 2083.01L1915.13 2074.67C1919.9 2074.82 1924.61 2074.97 1929.25 2075.11C1925.76 2078.57 1922.28 2082.02 1918.82 2085.43V2085.43ZM2078.88 2059.51C2058.48 2058.62 2020.1 2057.03 1970.84 2055.34L1973.32 2052.97C1975.19 2052.85 1977.06 2052.71 1978.89 2052.57C1979.58 2050.35 1980.33 2047.98 1981.06 2045.55L1999.28 2028.06L2007.69 2049.25C2033.22 2045.3 2056.99 2039.02 2078.97 2031.14C2080.08 2040.37 2080.1 2049.85 2078.88 2059.51V2059.51ZM1990.27 2014.86C1991.27 2011.49 1991.87 2009.42 1991.87 2009.42L1992.98 2012.18C1992.09 2013.07 1991.18 2013.97 1990.27 2014.86Z" fill="#F4FAFD"/>
<path d="M1973.32 2052.97L1981.05 2045.55C1980.32 2047.98 1979.59 2050.35 1978.9 2052.57C1977.06 2052.71 1975.2 2052.85 1973.32 2052.97ZM2007.7 2049.25L1999.28 2028.06L2054.07 1975.51L2043.47 1962.33C2043.47 1962.33 2022.1 1983.43 1992.99 2012.18L1991.87 2009.42C1991.87 2009.42 1991.28 2011.49 1990.27 2014.86C1981.23 2023.78 1971.52 2033.38 1961.5 2043.27V2029.51L2037.82 1955.18C2060.6 1975.43 2075.4 2001.91 2078.97 2031.14C2056.99 2039.02 2033.23 2045.3 2007.7 2049.25" fill="#ECBC77"/>
<path d="M1941.56 2054.37C1939.77 2054.31 1937.97 2054.26 1936.16 2054.21L1941.56 2048.94V2054.37Z" fill="#555E9A"/>
<path d="M1949.99 2054.65C1947.21 2054.55 1944.39 2054.46 1941.56 2054.37V2048.94L1961.51 2029.51V2043.27C1957.71 2047.03 1953.85 2050.82 1949.99 2054.65" fill="#474D8A"/>
<path d="M2074.35 2080.47C2050.88 2079.46 2006.18 2077.63 1949.58 2075.76L1970.86 2055.34C2020.11 2057.03 2058.49 2058.62 2078.9 2059.51C2078.71 2060.91 2078.52 2062.31 2078.28 2063.72C2077.37 2069.42 2076.05 2075.02 2074.35 2080.47ZM1929.28 2075.11C1924.62 2074.96 1919.92 2074.82 1915.16 2074.67L1936.17 2054.2C1937.97 2054.26 1939.78 2054.31 1941.57 2054.36C1944.39 2054.46 1947.22 2054.55 1949.99 2054.64C1943.11 2061.44 1936.17 2068.3 1929.28 2075.11" fill="#DE6B93"/>
<path d="M2036.91 2139.46C2031.34 2137.02 2024.05 2134.22 2014.45 2131.1C1991.77 2123.75 1960.31 2115.9 1920.93 2107.78C1919.63 2107.51 1918.34 2107.25 1917.03 2106.98L1935.84 2088.93C1998.85 2102.2 2033.25 2113.09 2052.56 2122.07C2047.85 2128.2 2042.62 2134.02 2036.91 2139.46V2139.46ZM1900.38 2103.66C1896.28 2102.86 1892.11 2102.06 1887.86 2101.24L1906.59 2083C1910.74 2083.82 1914.82 2084.62 1918.83 2085.43C1912.55 2091.63 1906.37 2097.74 1900.38 2103.66" fill="#D25B8B"/>
<path d="M1771.69 2117.26C1764.77 2105.46 1759.93 2092.65 1757.48 2079.18C1773.59 2081.66 1789.08 2084.11 1803.96 2086.54C1787.73 2101.98 1775.75 2113.39 1771.69 2117.26Z" fill="#F4FAFD"/>
<path d="M1840.8 2051.53C1835 2051.39 1829.15 2051.26 1823.25 2051.13V1944.93C1836.39 1936.43 1850.92 1929.53 1866.41 1924.5V2027.21C1857.73 2035.45 1849.12 2043.63 1840.8 2051.53" fill="#C1DDE7"/>
<path d="M1823.25 2051.12C1801.32 2050.63 1778.8 2050.18 1756.03 2049.82C1756.27 2046.59 1756.65 2043.36 1757.19 2040.11C1758.49 2031.98 1760.63 2024.09 1763.48 2016.46L1797.75 2026.78V1965.14C1805.44 1957.7 1814 1950.91 1823.25 1944.93V2051.12Z" fill="#DAEEF7"/>
<path d="M1786.04 2011.02L1768.13 2005.63C1772.91 1995.75 1778.93 1986.45 1786.04 1977.82V2011.02Z" fill="#646EA0"/>
<path d="M1797.75 2026.78L1763.48 2016.46C1764.87 2012.78 1766.41 2009.17 1768.13 2005.63L1786.04 2011.02V1977.82C1789.68 1973.4 1793.59 1969.18 1797.75 1965.14V2026.78" fill="#474D8A"/>
<path d="M2033.22 1951.24C2017.61 1944.24 1976.42 1925.82 1974.38 1925.82C1974.36 1925.82 1974.35 1925.83 1974.34 1925.83C1974.04 1925.87 1969.34 1930.16 1961.51 1937.44V1918.58C1989.38 1923.96 2013.86 1935.47 2033.22 1951.24" fill="#ECBC77"/>
<path d="M1909.59 1986.31V1915.85C1914.88 1915.41 1920.23 1915.18 1925.61 1915.18C1930.29 1915.18 1935 1915.35 1939.75 1915.7C1940.35 1915.74 1940.96 1915.79 1941.56 1915.83V1956.13C1932.15 1964.99 1921.24 1975.29 1909.59 1986.31" fill="#555E9A"/>
<path d="M1941.56 1956.12V1915.83C1948.37 1916.41 1955.03 1917.32 1961.51 1918.58V1937.44C1956.16 1942.4 1949.37 1948.78 1941.56 1956.12Z" fill="#474D8A"/>
<path d="M1887.59 2007.14L1886.83 1919.11C1894.28 1917.59 1901.87 1916.49 1909.59 1915.85V1986.31C1902.48 1993.03 1895.08 2000.03 1887.59 2007.14" fill="#C1DDE7"/>
<path d="M1866.41 2027.21V1924.5C1873.05 1922.35 1879.88 1920.55 1886.83 1919.11L1887.59 2007.14C1880.59 2013.78 1873.48 2020.51 1866.41 2027.21" fill="#9DC4D4"/>
<path d="M1823.39 2068.07C1802.12 2064.53 1779.52 2060.93 1755.68 2057.3C1755.71 2054.82 1755.83 2052.33 1756.03 2049.82C1778.8 2050.18 1801.32 2050.63 1823.25 2051.13C1829.15 2051.26 1835 2051.39 1840.8 2051.53C1834.81 2057.22 1828.97 2062.77 1823.39 2068.07" fill="#DE6B93"/>
<path d="M1803.96 2086.54C1789.08 2084.11 1773.59 2081.66 1757.48 2079.18C1756.19 2072.06 1755.57 2064.74 1755.68 2057.3C1779.52 2060.93 1802.12 2064.53 1823.39 2068.07C1816.45 2074.66 1809.93 2080.87 1803.96 2086.54" fill="#D25B8B"/>
<path d="M1821.75 2165.65L1775.81 2123.82C1774.37 2121.67 1772.99 2119.49 1771.69 2117.26C1775.75 2113.39 1787.73 2101.98 1803.96 2086.54C1805.04 2086.71 1806.12 2086.89 1807.17 2087.06L1823.25 2091.9L1826.77 2090.33C1848.6 2094.02 1868.99 2097.67 1887.87 2101.25L1821.75 2165.65" fill="#E7F4FA"/>
<path d="M1823.25 2091.9V2089.74C1824.43 2089.94 1825.6 2090.13 1826.77 2090.33L1823.25 2091.9" fill="#CDE6EF"/>
<path d="M1823.25 2091.9L1807.17 2087.06C1812.61 2087.95 1817.97 2088.85 1823.25 2089.74V2091.9" fill="#DAEEF7"/>
<path d="M1906.59 2083C1895.32 2080.8 1883.47 2078.58 1871.08 2076.34L1874.65 2073.51C1888.55 2073.88 1902.08 2074.28 1915.15 2074.67L1906.59 2083ZM1866.41 2075.5C1864.88 2075.22 1863.32 2074.95 1861.77 2074.67L1864.93 2073.26C1865.43 2073.27 1865.92 2073.28 1866.41 2073.3V2075.5" fill="#E7F4FA"/>
<path d="M1861.77 2074.67C1858.49 2074.09 1855.17 2073.5 1851.83 2072.93C1856.21 2073.03 1860.6 2073.14 1864.93 2073.26L1861.77 2074.67" fill="#CDE6EF"/>
<path d="M1916.4 2053.59C1914.07 2053.51 1911.72 2053.45 1909.36 2053.38L1909.59 2053.27V2052.15L1916.4 2053.59" fill="#E7F4FA"/>
<path d="M1961.51 2029.51V1937.45C1969.33 1930.17 1974.03 1925.87 1974.33 1925.83C1974.34 1925.83 1974.36 1925.82 1974.37 1925.82C1976.41 1925.82 2017.62 1944.25 2033.21 1951.25C2034.78 1952.53 2036.32 1953.85 2037.82 1955.18L1961.51 2029.51" fill="#E3D5B7"/>
<path d="M1936.16 2054.21C1929.71 2053.99 1923.11 2053.79 1916.4 2053.59L1909.59 2052.15V1986.31C1921.24 1975.29 1932.15 1964.99 1941.56 1956.13V2048.94L1936.16 2054.21" fill="#98A6C9"/>
<path d="M1941.56 2048.94V1956.13C1949.37 1948.78 1956.16 1942.41 1961.51 1937.45V2029.51L1941.56 2048.94Z" fill="#919EC1"/>
<path d="M1909.36 2053.38C1902.36 2053.17 1895.21 2052.97 1887.97 2052.77L1887.59 2007.14C1895.08 2000.03 1902.48 1993.03 1909.59 1986.31V2052.15V2053.27L1909.36 2053.38V2053.38ZM1866.41 2052.18C1858 2051.95 1849.45 2051.74 1840.8 2051.53C1849.12 2043.63 1857.73 2035.45 1866.41 2027.21V2052.18Z" fill="#CDE6EF"/>
<path d="M1871.08 2076.34C1869.53 2076.06 1867.99 2075.78 1866.41 2075.5V2073.3C1869.17 2073.37 1871.92 2073.45 1874.65 2073.51L1871.08 2076.34" fill="#CDE6EF"/>
<path d="M1887.97 2052.77C1880.89 2052.57 1873.71 2052.37 1866.41 2052.18V2027.21C1873.48 2020.51 1880.59 2013.78 1887.59 2007.14L1887.97 2052.77" fill="#BBD9E6"/>
<path d="M1915.15 2074.67C1902.08 2074.29 1888.55 2073.89 1874.65 2073.51C1871.92 2073.45 1869.17 2073.37 1866.41 2073.3C1865.92 2073.29 1865.43 2073.27 1864.93 2073.26C1860.6 2073.14 1856.21 2073.03 1851.83 2072.93C1842.63 2071.31 1833.15 2069.7 1823.39 2068.07C1828.97 2062.77 1834.81 2057.22 1840.8 2051.53C1849.45 2051.74 1858 2051.95 1866.41 2052.18C1873.71 2052.37 1880.89 2052.57 1887.97 2052.77C1895.21 2052.97 1902.36 2053.17 1909.36 2053.38C1911.72 2053.45 1914.07 2053.51 1916.4 2053.59C1923.11 2053.79 1929.71 2053.99 1936.16 2054.21L1915.15 2074.67" fill="#DCACC5"/>
<path d="M1887.87 2101.25C1868.99 2097.67 1848.6 2094.02 1826.77 2090.33C1825.6 2090.13 1824.43 2089.94 1823.25 2089.74C1817.97 2088.85 1812.61 2087.95 1807.17 2087.06C1806.12 2086.89 1805.04 2086.71 1803.96 2086.54C1809.93 2080.87 1816.45 2074.66 1823.39 2068.07C1833.15 2069.7 1842.63 2071.31 1851.83 2072.93C1855.17 2073.5 1858.49 2074.09 1861.77 2074.67C1863.32 2074.95 1864.88 2075.22 1866.41 2075.5C1867.99 2075.78 1869.53 2076.06 1871.08 2076.34C1883.47 2078.58 1895.32 2080.81 1906.59 2083.01L1887.87 2101.25" fill="#D6A5C1"/>
<path d="M1844.28 2176.77L1833.08 2170.26C1833.95 2169.31 1863.6 2139.99 1900.37 2103.66C1906.08 2104.78 1911.61 2105.89 1917.03 2106.98L1844.28 2176.77V2176.77ZM1935.84 2088.93C1933.27 2088.39 1930.64 2087.85 1927.97 2087.29C1924.97 2086.67 1921.92 2086.05 1918.83 2085.43C1922.28 2082.02 1925.77 2078.57 1929.27 2075.11C1936.19 2075.33 1942.96 2075.55 1949.57 2075.77L1935.84 2088.93V2088.93ZM1970.85 2055.34C1967.79 2055.25 1964.67 2055.14 1961.51 2055.03V2053.55C1965.48 2053.42 1969.43 2053.22 1973.33 2052.97L1970.85 2055.34ZM1981.07 2045.55C1984.47 2034.41 1988.2 2021.86 1990.28 2014.86C1991.19 2013.97 1992.09 2013.07 1992.99 2012.18L1999.29 2028.06L1981.07 2045.55" fill="#E7F4FA"/>
<path d="M1961.5 2053.55V2043.27C1971.52 2033.38 1981.24 2023.78 1990.28 2014.86C1988.2 2021.86 1984.46 2034.4 1981.07 2045.55L1973.33 2052.96C1969.42 2053.22 1965.48 2053.42 1961.5 2053.55V2053.55ZM1999.29 2028.06L1992.99 2012.18C2022.11 1983.43 2043.48 1962.32 2043.48 1962.32L2054.08 1975.51L1999.29 2028.06" fill="#E3D5B7"/>
<path d="M1961.51 2055.03C1957.72 2054.9 1953.89 2054.78 1949.99 2054.65C1953.85 2050.82 1957.71 2047.03 1961.51 2043.27V2053.55V2055.03" fill="#919EC1"/>
<path d="M1949.57 2075.77C1942.96 2075.55 1936.19 2075.33 1929.27 2075.11C1936.16 2068.3 1943.11 2061.45 1949.99 2054.65C1953.89 2054.78 1957.72 2054.9 1961.51 2055.03C1964.67 2055.14 1967.79 2055.25 1970.85 2055.34L1949.57 2075.77Z" fill="#DCACC5"/>
<path d="M1917.03 2106.98C1911.61 2105.89 1906.08 2104.78 1900.37 2103.66C1906.37 2097.74 1912.55 2091.63 1918.83 2085.43C1921.92 2086.05 1924.97 2086.67 1927.97 2087.29C1930.64 2087.85 1933.27 2088.39 1935.84 2088.93L1917.03 2106.98" fill="#D6A5C1"/>
<path d="M2069.43 2063.07C2057.97 2134.06 1980.58 2186.79 1896.93 2180.65C1813.28 2174.49 1754.55 2111.74 1766.02 2040.75C1766.43 2038.17 1766.96 2035.59 1767.55 2033.05L1767.7 2032.94L1767.59 2032.83C1783.33 1965.9 1858.03 1917.27 1938.53 1923.19C2022.18 1929.35 2080.9 1992.1 2069.43 2063.07V2063.07ZM1605.58 2028.95C1594.11 2099.94 1516.73 2152.67 1433.08 2146.53C1349.43 2140.37 1290.69 2077.62 1302.16 2006.65C1313.62 1935.66 1391.01 1882.93 1474.66 1889.07C1558.31 1895.23 1617.05 1957.98 1605.58 2028.95ZM2091.85 2048.99L2088.65 2048.75C2089.8 2015.94 2077.77 1984.58 2053.93 1959.1C2026.32 1929.61 1986.2 1911.53 1940.95 1908.19C1895.7 1904.87 1850.75 1916.69 1814.37 1941.49C1784.34 1961.95 1763.11 1989.26 1753.14 2019.77C1722.12 1996.25 1687.17 1995.95 1661.74 2000.58C1647.18 2003.23 1634.41 2007.73 1624.87 2011.79C1625.23 1980.02 1613.22 1949.73 1590.07 1924.98C1562.45 1895.49 1522.33 1877.41 1477.08 1874.07C1431.84 1870.75 1386.89 1882.57 1350.52 1907.37C1319.09 1928.78 1297.33 1957.66 1287.99 1989.86L1284.77 1989.62C1272.28 1988.71 1260.75 1996.55 1259.03 2007.17C1257.33 2017.77 1266.07 2027.1 1278.58 2028.02L1282.91 2028.34C1283.68 2058.46 1295.63 2087.06 1317.67 2110.62C1345.29 2140.11 1385.4 2158.19 1430.66 2161.53C1475.91 2164.85 1520.85 2153.03 1557.22 2128.23C1591.03 2105.19 1613.66 2073.51 1621.68 2038.35L1621.81 2038.51C1622.02 2038.39 1641.5 2026.66 1666.88 2022.22C1698.98 2016.58 1725.84 2025.02 1746.66 2047.27L1747.38 2046.79C1743.71 2082.58 1755.69 2117.11 1781.54 2144.74C1809.14 2174.23 1849.25 2192.31 1894.52 2195.64C1939.76 2198.97 1984.72 2187.15 2021.09 2162.35C2050.14 2142.55 2070.94 2116.37 2081.31 2087.07L2085.64 2087.39C2098.15 2088.31 2109.66 2080.46 2111.38 2069.85C2113.09 2059.25 2104.36 2049.91 2091.85 2048.99Z" fill="#FF5B7E"/>
<path d="M873.166 1747.69L862.61 1771.23C861.74 1773.17 862.609 1775.46 864.554 1776.33L919.685 1801.05C923.674 1802.83 927.529 1798.3 925.126 1794.65L903.79 1761.41C903.79 1761.41 886.925 1764.5 873.166 1747.69" fill="#333333"/>
<path d="M630.187 1454.74C630.187 1454.74 613.201 1534.66 690.261 1553.63C767.32 1572.6 864.569 1574.54 864.569 1574.54L866.368 1760.71L906.929 1765.35C906.929 1765.35 1027.96 1514.48 885.473 1465.07L755.096 1457.48L701.669 1450.27C701.669 1450.27 648.209 1433.42 647.409 1435.94C646.609 1438.46 631.383 1456.1 630.187 1454.74" fill="#E03268"/>
<path d="M931.36 1241.73C942.956 1227.09 938.505 1214.82 922.777 1193.11C898.903 1160.17 869.557 1155.23 844.447 1133.22C835.657 1125.51 821.14 1101.13 811.584 1084.1C806.652 1075.33 802.443 1066.17 798.596 1056.86C777.248 1005.15 727.371 1013.57 727.371 1013.57C727.371 1013.57 729.941 1078.97 730.133 1080.79C730.172 1081.17 732.197 1082.22 735.373 1083.67C725.417 1093.47 709.323 1109.39 706.148 1114.67C701.531 1122.34 682.584 1155.62 682.584 1155.62C682.584 1155.62 715.42 1246.79 718.511 1272.29C720.145 1285.78 740.489 1289.65 763.441 1290.93C777.964 1318.87 798.117 1347.18 819.572 1345.31C861.301 1341.7 859.831 1325.58 873.489 1312.35C887.148 1299.11 916.199 1313.03 934.885 1290.33C949.16 1272.98 924.129 1250.86 931.36 1241.73Z" fill="#333333"/>
<path d="M781.83 1295.38C781.83 1295.38 767.304 1442.92 780.971 1461.96H725.211V1286.59L781.83 1295.38" fill="#FFC0BB"/>
<path d="M637.364 1041.71C637.364 1041.71 621.057 1066.25 612.737 1075.97C591.806 1100.43 589.112 1092.77 576.102 1113.81C562.062 1136.53 576.268 1150.74 584.342 1157.29C592.417 1163.83 578.906 1188.05 593.952 1201.62C605.056 1211.65 615.69 1210.69 625.282 1209.73C632.704 1208.99 639.502 1208.25 645.412 1212.59C658.96 1222.55 661.922 1237.3 694.037 1234.51C726.152 1231.73 725.837 1126.73 725.837 1126.73C725.837 1126.73 699.552 1071.06 698.509 1070.59C697.465 1070.14 637.364 1041.71 637.364 1041.71" fill="#333333"/>
<path d="M720.917 1190.96C720.917 1190.96 667.32 1181.1 642.673 1181.94C618.027 1182.76 657.611 1246.85 657.611 1246.85L697.863 1247.74C697.863 1247.74 722.54 1220.18 720.917 1216.98C719.295 1213.77 720.993 1192.74 720.993 1192.74L720.917 1190.96Z" fill="#FFC0BB"/>
<path d="M673.127 1139.82L658.989 1182.72C658.989 1182.72 671.297 1208.18 708.991 1197.2C708.991 1197.2 704.691 1188.31 710.459 1170C716.353 1151.31 673.127 1139.82 673.127 1139.82" fill="#FFC0BB"/>
<path d="M707.462 1187.59C707.458 1187.59 707.455 1187.59 707.45 1187.58C707.446 1184.42 707.809 1180.47 708.901 1175.71H708.903C707.812 1180.47 707.456 1184.42 707.462 1187.59ZM666.506 1159.91C666.502 1159.9 666.498 1159.89 666.492 1159.86L668.223 1154.63C668.228 1154.65 668.234 1154.65 668.239 1154.66L666.506 1159.91" fill="#AC6964"/>
<path d="M707.449 1187.58C683.295 1184.49 670.471 1174.54 666.505 1159.91L668.239 1154.66C677.856 1167.1 692.441 1175.22 708.901 1175.71C707.809 1180.47 707.445 1184.42 707.449 1187.58Z" fill="#FDA19A"/>
<path d="M759.361 1108.4C756.303 1115.36 758.341 1123 763.916 1125.44C769.491 1127.9 776.489 1124.23 779.548 1117.27C782.607 1110.3 780.568 1102.66 774.993 1100.22C769.419 1097.76 762.42 1101.43 759.361 1108.4Z" fill="#F99893"/>
<path d="M756.243 1149.57C758.076 1146.57 759.647 1143.38 760.923 1140.05C764.537 1131.07 766.496 1121.5 767.535 1113.13C767.757 1111.33 768.084 1109.55 768.444 1107.78C769.896 1100.62 770.072 1092.98 768.591 1085.1C763.827 1059.7 742.541 1040.11 716.841 1037.51C682.216 1034.02 652.807 1060.63 651.904 1094.5C648.277 1092.35 644.156 1091.77 640.473 1093.3C633.407 1096.23 630.651 1105.77 634.317 1114.61C637.984 1123.43 646.685 1128.22 653.751 1125.29C654.733 1124.87 655.621 1124.33 656.431 1123.69C658.599 1152.58 681.613 1175.45 709.94 1175.73C723.792 1175.87 736.481 1170.58 746.157 1161.77C746.804 1161.26 747.483 1160.66 748.197 1159.95C751.337 1156.87 753.985 1153.35 756.243 1149.57" fill="#FFC0BB"/>
<path d="M742.796 1097.7C741.681 1100.89 741.099 1104.22 740.911 1107.62C740.819 1109.33 740.86 1111.03 741.092 1112.79C741.359 1114.54 741.764 1116.34 742.872 1118.07L743.361 1118.71L743.8 1119.25C743.981 1119.5 744.259 1119.71 744.383 1119.99C744.729 1120.49 744.943 1121.03 745.025 1121.61C745.26 1122.74 744.725 1123.98 743.899 1125.09C742.112 1127.31 738.98 1128.53 735.713 1129.19C738.967 1129.83 742.832 1129.43 745.715 1126.81C747.121 1125.54 748.209 1123.51 748.048 1121.33C748.009 1120.78 747.925 1120.25 747.729 1119.74C747.587 1119.21 747.324 1118.77 747.065 1118.3C746.824 1117.82 746.451 1117.49 746.139 1117.07C745.94 1116.85 745.909 1116.78 745.807 1116.65L745.536 1116.3C744.839 1115.25 744.411 1113.77 744.076 1112.27C743.708 1110.77 743.603 1109.17 743.403 1107.57C743.123 1104.35 742.996 1101.06 742.796 1097.7" fill="#F99893"/>
<path d="M722.873 1104.54C722.845 1107.37 720.521 1109.65 717.684 1109.62C714.845 1109.59 712.569 1107.27 712.597 1104.43C712.625 1101.59 714.949 1099.31 717.787 1099.34C720.625 1099.38 722.903 1101.7 722.873 1104.54Z" fill="#333333"/>
<path d="M761.039 1105.47C761.01 1108.31 758.687 1110.59 755.848 1110.55C753.011 1110.53 750.734 1108.21 750.763 1105.37C750.791 1102.53 753.115 1100.26 755.952 1100.29C758.79 1100.31 761.067 1102.63 761.039 1105.47" fill="#333333"/>
<path d="M735.227 1150.19C734.864 1150.19 734.495 1150.18 734.113 1150.15C722.432 1149.45 722.113 1138.67 722.113 1138.67C722.113 1138.67 724.133 1137.95 727.023 1137.95C729.509 1137.95 732.639 1138.49 735.681 1140.49C735.681 1140.49 738.939 1138.45 742.78 1138.45C744.616 1138.45 746.583 1138.91 748.393 1140.29C748.393 1140.29 745.959 1150.19 735.227 1150.19" fill="#FDA8A3"/>
<path d="M715.995 1134.89C717.316 1135.95 718.692 1136.94 720.141 1137.81C721.571 1138.69 723.052 1139.49 724.584 1140.17C727.643 1141.5 730.869 1142.45 734.168 1142.73C737.467 1143.02 740.797 1142.61 743.981 1141.63C747.155 1140.62 750.153 1139.03 752.983 1137.14C751.721 1138.29 750.365 1139.33 748.919 1140.26C747.472 1141.18 745.905 1141.91 744.304 1142.57C742.684 1143.18 740.993 1143.62 739.271 1143.86C737.544 1144.09 735.795 1144.13 734.059 1144.01C730.589 1143.67 727.211 1142.65 724.157 1141.05C721.108 1139.45 718.285 1137.42 715.995 1134.89" fill="#F99893"/>
<path d="M724.785 1089.18C722.141 1088.46 719.658 1087.94 717.21 1087.65C714.766 1087.37 712.382 1087.38 710.072 1087.75C707.776 1088.15 705.472 1088.73 703.278 1089.82C702.108 1090.23 701.1 1090.98 699.92 1091.53C698.786 1092.14 697.741 1092.91 696.468 1093.53C697.07 1092.31 697.781 1091.11 698.622 1090.02C699.554 1089.01 700.442 1087.89 701.625 1087.1C703.82 1085.3 706.621 1084.22 709.47 1083.75C712.337 1083.3 715.297 1083.62 717.949 1084.57C720.586 1085.54 723.026 1087.03 724.785 1089.18" fill="#333333"/>
<path d="M748.245 1089.18C750.252 1087.27 752.854 1086.07 755.59 1085.43C758.34 1084.82 761.314 1084.86 764.106 1085.66C766.877 1086.47 769.526 1087.89 771.485 1089.94C772.564 1090.86 773.306 1092.09 774.11 1093.19C774.81 1094.39 775.372 1095.66 775.822 1096.94C774.633 1096.18 773.69 1095.29 772.64 1094.54C771.534 1093.85 770.625 1092.99 769.513 1092.45C767.469 1091.09 765.252 1090.23 763.022 1089.55C760.774 1088.91 758.41 1088.61 755.949 1088.58C753.485 1088.58 750.956 1088.79 748.245 1089.18Z" fill="#333333"/>
<path d="M749.806 1311.98C749.806 1311.98 739.342 1342.56 737.44 1358.82C732.715 1399.16 741.454 1433.8 749.806 1456.78C761.519 1488.99 662.248 1471.1 660.295 1470.11C658.343 1469.14 576.344 1437.42 576.344 1437.42L570.164 1374.18L560.726 1311.98L565.118 1275.36L749.806 1311.98" fill="#02CCC0"/>
<path d="M592.545 1223.05C592.545 1223.05 605.251 1224.15 603.869 1246.25C602.488 1268.35 592.173 1310.4 592.173 1310.4C592.173 1310.4 491.976 1502.98 470.016 1521.71C468.827 1522.72 467.321 1523.28 465.759 1523.34L395.613 1525.39C398.475 1521.52 402.569 1518.74 407.223 1517.5L438.693 1509.15C439.933 1508.83 440.984 1508 441.6 1506.88L451.683 1488.47L527.673 1285.79C535.425 1267.72 553.867 1257.4 566.539 1242.39C575.799 1231.42 585.899 1221.97 592.545 1223.05Z" fill="#FFC0BB"/>
<path d="M720.917 1190.97C720.917 1190.97 684.48 1233.49 642.673 1181.94C642.673 1181.94 596.997 1178.22 563.32 1202.13C529.641 1226.05 509.475 1279.77 509.475 1279.77C509.475 1279.77 570.487 1310.51 585.617 1311.98H754.984C754.984 1311.98 780.853 1310.03 805.745 1297.34C805.745 1297.34 801.452 1211.95 720.917 1190.97Z" fill="#02CCC0"/>
<path d="M612.737 1247.74C610.995 1252.97 609.449 1258.25 607.887 1263.51C606.315 1268.79 604.9 1274.1 603.497 1279.43C602.156 1284.77 600.801 1290.1 599.635 1295.49C598.477 1300.87 597.341 1306.27 596.476 1311.74L597.767 1310.45C596.104 1310.62 594.057 1310.57 592.173 1310.41C590.251 1310.29 588.323 1309.99 586.399 1309.73C582.563 1309.05 578.716 1308.31 574.935 1307.25L572.089 1306.5L569.271 1305.63C567.396 1305.03 565.505 1304.5 563.652 1303.83L558.067 1301.9L552.549 1299.77C548.855 1298.38 545.251 1296.75 541.593 1295.26L530.793 1290.34L520.091 1285.15C516.571 1283.34 513.04 1281.53 509.475 1279.77C512.831 1281.89 516.223 1283.95 519.621 1286.02C523.051 1288.03 526.513 1289.99 529.995 1291.91C533.507 1293.78 537.056 1295.59 540.617 1297.38L546.041 1299.89C547.847 1300.73 549.652 1301.58 551.511 1302.31C558.836 1305.47 566.391 1308.15 574.125 1310.29L577.031 1311.06L579.972 1311.73C581.921 1312.22 583.923 1312.53 585.909 1312.87C587.913 1313.14 589.917 1313.42 591.955 1313.54C594.023 1313.67 595.964 1313.77 598.248 1313.51L599.36 1313.38L599.537 1312.22C601.183 1301.42 603.375 1290.67 605.66 1279.94L609.148 1263.83L612.737 1247.74Z" fill="#DAEEF7"/>
<path d="M741.509 1235.39C743.896 1241.63 746.067 1247.91 748.003 1254.23C749.904 1260.57 751.588 1266.94 752.711 1273.41C753.335 1276.63 753.736 1279.89 754.012 1283.14C754.341 1286.39 754.375 1289.66 754.256 1292.91C754.013 1299.43 744.352 1330.11 741.509 1336.19C745.52 1330.81 756.041 1299.86 756.751 1293.11C757.567 1286.34 757.008 1279.5 755.867 1272.85C755.233 1269.53 754.492 1266.23 753.572 1262.99C752.611 1259.75 751.589 1256.55 750.361 1253.42C747.947 1247.15 745.089 1241.06 741.509 1235.39" fill="#DAEEF7"/>
<path d="M651.905 1094.5C651.905 1094.5 714.484 1079.39 744.376 1036.87C744.376 1036.87 744.896 998.152 687.451 1006.94C631.632 1015.47 618.567 1069.79 651.905 1094.5Z" fill="#333333"/>
<path d="M801.723 1744.89L791.167 1768.43C790.296 1770.37 791.165 1772.66 793.111 1773.53L848.241 1798.25C852.231 1800.03 856.085 1795.5 853.681 1791.85L832.347 1758.61C832.347 1758.61 815.481 1761.7 801.723 1744.89" fill="#333333"/>
<path d="M573.59 1435.13C557.219 1456.62 553.774 1485.67 565.728 1509.91C574.031 1526.74 589.703 1542.42 618.602 1549.54C695.66 1568.51 792.91 1570.45 792.91 1570.45L794.707 1756.61L835.27 1761.26C835.27 1761.26 956.304 1510.39 813.812 1460.98L683.435 1453.39L630.01 1446.17C630.01 1446.17 576.55 1429.33 575.75 1431.85C575.58 1432.38 574.772 1433.58 573.59 1435.13" fill="#FF5B7E"/>
<path d="M814.569 1575.4C812.5 1575.03 810.432 1574.68 808.393 1574.2C806.353 1573.74 804.336 1573.18 802.341 1572.58C801.341 1572.27 800.333 1571.94 799.348 1571.56C800.383 1571.35 801.387 1571.04 802.385 1570.7C804.356 1569.99 806.197 1568.99 807.927 1567.86C809.596 1566.63 811.18 1565.3 812.561 1563.78C813.951 1562.27 815.141 1560.6 816.193 1558.87L814.139 1561.1C813.403 1561.79 812.719 1562.51 811.951 1563.16C810.488 1564.52 808.853 1565.66 807.177 1566.7C805.489 1567.72 803.7 1568.55 801.859 1569.19C800.028 1569.82 798.047 1570.27 796.22 1570.32L792.867 1570.46L795.843 1571.83C797.863 1572.78 799.873 1573.39 801.939 1573.96C803.992 1574.54 806.084 1574.95 808.175 1575.31C810.271 1575.64 812.369 1575.94 814.483 1576.1C816.595 1576.26 818.707 1576.35 820.82 1576.35C818.728 1576.04 816.639 1575.79 814.569 1575.4" fill="#DAEEF7"/>
<path d="M1643.49 572.325H1188.41C1195.15 542.965 1218.11 519.792 1247.35 512.752C1266.93 518.965 1288.33 519.952 1309.37 519.952C1313.39 519.952 1317.37 519.912 1321.33 519.872C1371.55 519.338 1421.75 518.792 1471.95 518.259C1477.2 518.205 1482.49 518.152 1487.79 518.152C1517.07 518.152 1546.59 519.739 1573.45 530.885C1598.53 541.285 1619.68 559.405 1643.49 572.325Z" fill="#FFF2E5"/>
<path d="M964.433 516.325H786.437C786.353 515.445 786.307 514.565 786.307 513.672C786.307 498.565 798.552 486.325 813.656 486.325C818.483 486.325 823.015 487.579 826.952 489.765C832.513 474.459 847.191 463.525 864.423 463.525C878.905 463.525 891.584 471.245 898.564 482.805C901.603 481.858 904.835 481.352 908.187 481.352C921.149 481.352 932.328 488.979 937.479 499.992C939.251 499.539 941.109 499.285 943.025 499.285C953.461 499.285 962.193 506.565 964.433 516.325Z" fill="#FFF2E5"/>
<path d="M2005.88 166.681C1977.77 165.836 1949.67 164.303 1921.53 162.769C1880.03 160.489 1838.53 158.21 1797.04 158.21C1787.85 158.21 1778.65 158.323 1769.46 158.576C1768.74 158.59 1768.02 158.618 1767.31 158.646C1774.29 147.882 1786.43 140.762 1800.21 140.762C1807.13 140.762 1813.64 142.563 1819.27 145.715C1827.25 123.75 1848.29 108.075 1872.99 108.075C1893.76 108.075 1911.94 119.149 1921.96 135.724C1926.31 134.359 1930.94 133.628 1935.75 133.628C1954.34 133.628 1970.37 144.575 1977.75 160.377C1980.29 159.716 1982.96 159.364 1985.7 159.364C1993.39 159.364 2000.42 162.108 2005.88 166.681" fill="#FFF2E5"/>
<path d="M2276.82 736.487C2276.82 736.442 2276.82 736.427 2276.82 736.382C2276.82 736.412 2276.82 736.457 2276.82 736.487ZM2276.86 736.022C2276.86 735.992 2276.86 735.962 2276.88 735.932C2276.86 735.962 2276.86 735.992 2276.86 736.022ZM2276.91 735.617C2276.91 735.587 2276.91 735.558 2276.92 735.528C2276.91 735.558 2276.91 735.587 2276.91 735.617ZM2276.94 735.153C2276.95 735.123 2276.95 735.093 2276.95 735.063C2276.95 735.093 2276.95 735.123 2276.94 735.153ZM2277 734.688C2277 734.688 2277 734.688 2277 734.673C2277 734.688 2277 734.688 2277 734.688ZM2277.03 734.283C2277.04 734.268 2277.04 734.238 2277.04 734.208C2277.04 734.238 2277.04 734.268 2277.03 734.283ZM2277.07 733.818C2277.07 733.803 2277.07 733.788 2277.07 733.788C2277.07 733.788 2277.07 733.803 2277.07 733.818ZM2277.12 733.413C2277.12 733.383 2277.12 733.368 2277.12 733.338C2277.12 733.368 2277.12 733.383 2277.12 733.413ZM2277.16 732.948C2277.16 732.933 2277.16 732.918 2277.16 732.903C2277.16 732.918 2277.16 732.933 2277.16 732.948ZM2277.24 732.064C2277.24 732.049 2277.24 732.049 2277.24 732.049V732.064Z" fill="white"/>
<path d="M2276.57 738.995H1931.15C1937.27 712.388 1961.07 692.538 1989.54 692.538C1994.76 692.538 1999.82 693.214 2004.66 694.475C2018.71 664.43 2049.19 643.619 2084.54 643.619C2093.68 643.619 2102.5 645.016 2110.77 647.598C2129.81 616.082 2164.39 595.016 2203.88 595.016C2230.88 595.016 2255.58 604.881 2274.57 621.172C2280.17 657.373 2280.46 696.172 2277.23 732.043C2277.23 732.058 2277.23 732.058 2277.23 732.073C2277.2 732.343 2277.18 732.629 2277.15 732.914C2277.15 732.914 2277.15 732.944 2277.15 732.959C2277.14 733.079 2277.12 733.214 2277.11 733.349C2277.11 733.379 2277.11 733.394 2277.11 733.424C2277.09 733.545 2277.08 733.665 2277.06 733.785C2277.06 733.8 2277.06 733.815 2277.06 733.83C2277.06 733.95 2277.05 734.085 2277.03 734.205C2277.03 734.235 2277.03 734.265 2277.02 734.295C2277.02 734.431 2277 734.551 2276.99 734.686V734.701C2276.97 734.821 2276.96 734.941 2276.94 735.076C2276.94 735.106 2276.94 735.136 2276.94 735.166C2276.93 735.286 2276.93 735.407 2276.91 735.542C2276.9 735.557 2276.9 735.587 2276.9 735.617C2276.88 735.722 2276.87 735.842 2276.87 735.947C2276.85 735.977 2276.85 735.992 2276.85 736.022C2276.84 736.142 2276.82 736.277 2276.82 736.398C2276.82 736.428 2276.82 736.458 2276.82 736.488C2276.81 736.623 2276.79 736.743 2276.78 736.878C2276.7 737.584 2276.63 738.289 2276.57 738.995" fill="#FFF2E5"/>
<path d="M651.999 713.658H268.507C304.508 674.005 371.437 630.245 437.617 586.592C452.941 595.632 465.824 608.378 475.019 623.605C483.186 621.058 491.869 619.685 500.875 619.685C535.703 619.685 565.739 640.192 579.577 669.792C584.337 668.552 589.331 667.885 594.479 667.885C622.52 667.885 645.976 687.445 651.999 713.658Z" fill="#FFF2E5"/>
<path d="M2202.63 491.724C2202.61 491.724 2202.6 491.709 2202.59 491.709C2202.6 491.709 2202.61 491.724 2202.63 491.724ZM2202.45 491.636C2202.44 491.622 2202.43 491.622 2202.41 491.607C2202.43 491.622 2202.44 491.622 2202.45 491.636ZM2202.28 491.535C2202.27 491.535 2202.27 491.535 2202.25 491.52C2202.27 491.535 2202.27 491.535 2202.28 491.535ZM2201.99 491.375C2201.97 491.375 2201.96 491.36 2201.93 491.346C2201.96 491.36 2201.97 491.375 2201.99 491.375ZM2201.83 491.288C2201.8 491.273 2201.77 491.273 2201.74 491.259C2201.77 491.259 2201.8 491.273 2201.83 491.288ZM2201.64 491.2C2201.61 491.186 2201.58 491.171 2201.57 491.157C2201.58 491.171 2201.61 491.186 2201.64 491.2ZM2201.47 491.099C2201.42 491.084 2201.39 491.055 2201.35 491.04C2201.39 491.055 2201.42 491.084 2201.47 491.099ZM2201.25 490.982C2201.19 490.953 2201.15 490.924 2201.1 490.91C2201.15 490.924 2201.19 490.953 2201.25 490.982ZM2201.02 490.866C2200.99 490.837 2200.94 490.822 2200.91 490.808C2200.94 490.822 2200.99 490.851 2201.02 490.866ZM2200.83 490.764C2200.78 490.75 2200.75 490.721 2200.71 490.706C2200.75 490.721 2200.78 490.75 2200.83 490.764ZM2200.64 490.662C2200.58 490.633 2200.51 490.604 2200.46 490.561C2200.51 490.604 2200.58 490.633 2200.64 490.662ZM2114.25 455.06C2099 441.874 2089.37 422.481 2083.81 400.689C2083.83 400.689 2083.83 400.689 2083.83 400.689C2089.37 422.481 2099 441.874 2114.25 455.06ZM2086.76 198.98C2086.76 198.966 2086.76 198.951 2086.76 198.936C2086.76 198.951 2086.76 198.966 2086.76 198.98ZM2086.73 198.66C2086.73 198.646 2086.73 198.617 2086.73 198.602C2086.73 198.617 2086.73 198.646 2086.73 198.66ZM2086.72 198.355C2086.72 198.326 2086.71 198.297 2086.71 198.282C2086.71 198.297 2086.72 198.326 2086.72 198.355ZM2086.66 197.672C2086.66 197.643 2086.66 197.599 2086.66 197.57C2086.66 197.614 2086.66 197.643 2086.66 197.672ZM2086.65 197.366C2086.63 197.323 2086.63 197.279 2086.63 197.236C2086.63 197.279 2086.63 197.323 2086.65 197.366ZM2086.62 197.076C2086.62 197.032 2086.6 196.974 2086.6 196.93C2086.6 196.974 2086.62 197.032 2086.62 197.076ZM2086.59 196.77C2086.58 196.669 2086.56 196.552 2086.56 196.436C2086.56 196.552 2086.58 196.669 2086.59 196.77ZM2086.55 196.363C2086.55 196.305 2086.53 196.247 2086.53 196.189C2086.53 196.247 2086.55 196.305 2086.55 196.363ZM2086.52 196.058C2086.52 196.014 2086.5 195.942 2086.5 195.884C2086.5 195.942 2086.52 196 2086.52 196.058ZM2086.5 195.767C2086.5 195.709 2086.49 195.636 2086.49 195.578C2086.49 195.651 2086.5 195.709 2086.5 195.767ZM2086.47 195.506C2086.44 195.171 2086.42 194.837 2086.37 194.517C2086.42 194.837 2086.44 195.171 2086.47 195.506ZM2086.37 194.473C2086.37 194.401 2086.36 194.314 2086.34 194.226C2086.36 194.314 2086.37 194.401 2086.37 194.473ZM2086.34 194.212C2086.34 194.037 2086.33 193.863 2086.3 193.688C2086.28 193.47 2086.26 193.238 2086.23 193.02C2086.26 193.238 2086.28 193.47 2086.3 193.688C2086.33 193.863 2086.34 194.037 2086.34 194.212Z" fill="white"/>
<path d="M2152.98 593.913C2150.81 593.913 2148.64 593.913 2146.46 593.913C2017.52 593.526 1888.57 593.153 1759.63 592.781C1724.66 592.677 1688.62 592.364 1656.44 578.632C1652.02 576.74 1647.72 574.61 1643.49 572.331H1833.86C1834.16 569.159 1834.32 565.957 1834.32 562.71C1834.32 507.929 1789.93 463.53 1735.16 463.53C1717.64 463.53 1701.23 468.087 1686.95 476.041C1666.77 420.516 1613.56 380.853 1551.07 380.853C1498.55 380.853 1452.57 408.883 1427.27 450.78C1416.23 447.355 1404.52 445.493 1392.37 445.493C1345.37 445.493 1304.82 473.181 1286.14 513.112C1279.72 511.444 1272.99 510.551 1266.04 510.551C1259.6 510.551 1253.34 511.325 1247.35 512.755C1240.29 510.521 1233.45 507.602 1226.97 503.818C1179.37 476.026 1170.05 400.409 1209.48 361.892C1232.17 339.715 1264.5 331.195 1295.29 323.51C1408.5 295.271 1521.71 267.046 1634.92 238.807C1666.2 231.003 1700.5 221.098 1717.78 193.887C1723.53 184.846 1727.19 174.077 1735.5 167.3C1744.19 160.226 1756.03 159.034 1767.3 158.647C1763.32 164.783 1761 172.111 1761 179.975C1761 181.256 1761.06 182.522 1761.18 183.788H2016.41C2014.84 176.967 2011.07 171.009 2005.89 166.675C2019.27 167.062 2032.64 167.3 2046.01 167.3C2057.9 167.3 2069.82 167.122 2081.7 166.69C2083.76 175.254 2085.29 184.041 2086.23 193.023C2086.24 193.246 2086.27 193.469 2086.29 193.693C2086.32 193.871 2086.33 194.05 2086.35 194.214C2086.35 194.229 2086.35 194.229 2086.35 194.229C2086.36 194.318 2086.36 194.393 2086.36 194.482C2086.36 194.497 2086.36 194.497 2086.36 194.512C2086.41 194.84 2086.44 195.167 2086.47 195.51C2086.48 195.54 2086.48 195.555 2086.48 195.584C2086.48 195.644 2086.5 195.718 2086.5 195.778C2086.5 195.808 2086.5 195.853 2086.5 195.897C2086.5 195.957 2086.51 196.016 2086.51 196.076C2086.53 196.106 2086.53 196.15 2086.53 196.195C2086.53 196.24 2086.54 196.299 2086.54 196.359C2086.54 196.389 2086.56 196.418 2086.56 196.448C2086.56 196.552 2086.57 196.672 2086.59 196.776C2086.59 196.835 2086.6 196.88 2086.6 196.94C2086.6 196.984 2086.62 197.029 2086.62 197.074C2086.62 197.133 2086.62 197.193 2086.62 197.253C2086.62 197.297 2086.62 197.327 2086.63 197.372C2086.63 197.446 2086.65 197.521 2086.65 197.58C2086.65 197.61 2086.65 197.64 2086.66 197.67C2086.68 197.878 2086.69 198.087 2086.71 198.28C2086.71 198.31 2086.72 198.34 2086.72 198.355C2086.72 198.444 2086.74 198.518 2086.74 198.608C2086.74 198.623 2086.74 198.653 2086.74 198.667C2086.75 198.757 2086.75 198.846 2086.75 198.936C2086.75 198.95 2086.75 198.965 2086.75 198.98C2088.76 225.358 2086.08 251.75 2083.1 278.202C2026.19 274.404 1969.21 269.534 1912.73 269.534C1864.07 269.534 1815.78 273.153 1768.22 284.219C1747.89 288.956 1726.76 295.703 1712.82 311.252C1698.89 326.802 1695.65 353.671 1711.21 367.597C1718.42 374.061 1728.17 376.712 1737.59 378.931C1820.13 398.457 1904.76 401.004 1989.83 401.004C2004.83 401.004 2019.86 400.93 2034.87 400.855C2049.9 400.766 2064.92 400.692 2079.94 400.692C2081.24 400.692 2082.54 400.692 2083.82 400.692C2089.36 422.482 2098.99 441.874 2114.25 455.07C2139.12 476.562 2172.38 476.056 2200.45 490.578C2200.5 490.607 2200.57 490.637 2200.63 490.667C2200.66 490.682 2200.68 490.697 2200.71 490.697C2200.75 490.727 2200.78 490.741 2200.82 490.771C2200.85 490.786 2200.88 490.801 2200.9 490.816C2200.94 490.831 2200.99 490.846 2201 490.876C2201.05 490.876 2201.06 490.89 2201.09 490.905C2201.14 490.935 2201.18 490.965 2201.24 490.98C2201.26 490.995 2201.3 491.024 2201.35 491.039C2201.39 491.054 2201.42 491.084 2201.47 491.099C2201.49 491.114 2201.52 491.144 2201.55 491.158C2201.58 491.173 2201.61 491.188 2201.64 491.203C2201.67 491.218 2201.72 491.233 2201.75 491.263C2201.76 491.278 2201.79 491.278 2201.82 491.293C2201.87 491.322 2201.9 491.337 2201.93 491.352C2201.96 491.367 2201.97 491.367 2201.99 491.382C2202.08 491.427 2202.17 491.486 2202.25 491.531C2202.27 491.531 2202.27 491.531 2202.28 491.546C2202.31 491.561 2202.36 491.59 2202.4 491.62C2202.42 491.62 2202.43 491.635 2202.45 491.635C2202.51 491.665 2202.54 491.68 2202.58 491.71C2202.6 491.724 2202.61 491.724 2202.63 491.724C2229.91 506.708 2248.63 533.502 2260.74 566.136C2252.79 572.763 2243.93 578.274 2234.35 582.325C2208.93 593.049 2180.69 593.913 2152.98 593.913" fill="#FEE9D5"/>
<path d="M1833.87 572.325H1643.49C1619.68 559.405 1598.53 541.285 1573.45 530.885C1546.59 519.739 1517.07 518.152 1487.79 518.152C1482.49 518.152 1477.2 518.205 1471.95 518.259C1421.75 518.792 1371.55 519.338 1321.33 519.872C1317.37 519.912 1313.39 519.952 1309.37 519.952C1288.33 519.952 1266.93 518.965 1247.35 512.752C1253.35 511.312 1259.6 510.552 1266.04 510.552C1272.99 510.552 1279.72 511.445 1286.15 513.112C1304.83 473.179 1345.36 445.498 1392.37 445.498C1404.52 445.498 1416.24 447.352 1427.27 450.779C1452.57 408.872 1498.55 380.859 1551.07 380.859C1613.56 380.859 1666.77 420.512 1686.95 476.032C1701.23 468.072 1717.65 463.525 1735.16 463.525C1789.93 463.525 1834.33 507.925 1834.33 562.699C1834.33 565.952 1834.16 569.152 1833.87 572.325" fill="#FFF5EA"/>
<path d="M2016.41 183.786H1761.18C1761.07 182.534 1761 181.254 1761 179.974C1761 172.101 1763.31 164.779 1767.3 158.64C1768.02 158.613 1768.75 158.599 1769.46 158.571C1778.66 158.324 1787.85 158.214 1797.03 158.214C1838.53 158.214 1880.04 160.485 1921.54 162.756C1949.67 164.297 1977.77 165.839 2005.89 166.678C2011.08 171 2014.84 176.973 2016.41 183.786" fill="#FFF5EA"/>
<path d="M304.647 1618.96C304.647 1618.96 278.333 1645.66 290.333 1681.66C290.333 1681.66 298.333 1662.99 306.333 1657.66C306.333 1657.66 305 1680.32 314.333 1689.66C314.333 1689.66 322.573 1639.43 347.786 1634.55L304.647 1618.96Z" fill="#FF5B7E"/>
<path d="M604.821 1912.05C604.821 1912.05 621 1930.99 619.667 1954.99C619.667 1954.99 628.551 1942.71 630.776 1933.53C630.776 1933.53 639.667 1937.66 645 1948.33C645 1948.33 654.967 1922.91 644.649 1900.95L604.821 1912.05" fill="#FEB546"/>
<path d="M354.984 2035.67C354.984 2035.67 327.667 2072.32 337 2130.99C337 2130.99 346.333 2106.99 367.667 2093.66C367.667 2093.66 377 2132.32 382.333 2145.66C382.333 2145.66 403.648 2067.86 428.991 2061.43L354.984 2035.67" fill="#02CCC0"/>
</svg>
